<svg xmlns="http://www.w3.org/2000/svg" width="1832" height="1523" viewBox="0 0 1832 1523">

  <defs>
    <marker id="arrow-end" viewBox="0 0 10 10" refX="9" refY="5" markerWidth="7" markerHeight="7" orient="auto-start-reverse">
      <path d="M 0 0 L 10 5 L 0 10 z" fill="context-stroke"/>
    </marker>
    <marker id="arrow-start" viewBox="0 0 10 10" refX="1" refY="5" markerWidth="7" markerHeight="7" orient="auto-start-reverse">
      <path d="M 10 0 L 0 5 L 10 10 z" fill="context-stroke"/>
    </marker>
  </defs>

  <style>
    :root {
      --font-sans: "Inter", "Arial", "Helvetica", "Microsoft YaHei", "Noto Sans CJK SC", sans-serif;
      --font-serif: "Georgia", "Times New Roman", "Noto Serif CJK SC", serif;
      --font-hand: "Comic Sans MS", "Comic Neue", "Arial Rounded MT Bold", "Microsoft YaHei", sans-serif;
    }
  </style>
  <rect id="canvas-background" x="0" y="0" width="1832" height="1523" fill="#fdf8f5"/>
  <g id="background">
    <rect id="panel-top-bg" x="4" y="4" width="1824" height="324" rx="0" ry="0" fill="#fdf8f5" stroke="#b8b8b8" stroke-width="2"/>
    <rect id="panel-training-bg" x="4" y="329" width="1824" height="630" rx="0" ry="0" fill="#fffaf1" stroke="#b8b8b8" stroke-width="2"/>
    <rect id="panel-inference-bg" x="4" y="960" width="1824" height="559" rx="0" ry="0" fill="#eefaff" stroke="#8da4ae" stroke-width="2"/>
    <rect id="pose-estimator-card-bg" x="522" y="84" width="193" height="219" rx="30" ry="30" fill="#f3f3f3" stroke="#6b9bca" stroke-width="2"/>
    <rect id="focal-length-card-bg" x="1064" y="126" width="255" height="124" rx="12" ry="12" fill="#fffdf8" stroke="#b7d1f4" stroke-width="2" stroke-dasharray="6 4"/>
    <rect id="training-left-panel-bg" x="16" y="361" width="292" height="592" rx="32" ry="32" fill="#fffdf8" stroke="#dddddd" stroke-width="2"/>
    <rect id="visual-encoding-bg" x="375" y="363" width="435" height="589" rx="44" ry="44" fill="#fff8e4" stroke="#ffd760" stroke-width="2"/>
    <rect id="mmdit-block-bg" x="1384" y="469" width="63" height="450" rx="0" ry="0" fill="#edf7ff" stroke="#9ec5ea" stroke-width="2"/>
    <rect id="text-prompt-bg" x="972" y="834" width="222" height="109" rx="12" ry="12" fill="#f8f8f8" stroke="#c6c6c6" stroke-width="2"/>
    <rect id="input-video-bg" x="31" y="1054" width="213" height="123" rx="17" ry="17" fill="#fbf8ff" stroke="#7b45b4" stroke-width="4"/>
    <rect id="input-prompt-bg" x="31" y="1218" width="213" height="123" rx="17" ry="17" fill="#fbfdff" stroke="#0f376f" stroke-width="4"/>
    <rect id="input-image-bg" x="31" y="1388" width="213" height="123" rx="17" ry="17" fill="#fafff7" stroke="#4c8750" stroke-width="4"/>
    <rect id="transition-frames-bg" x="473" y="1014" width="155" height="78" rx="8" ry="8" fill="#fbf0ff" stroke="#e265c9" stroke-width="3" stroke-dasharray="8 6"/>
    <rect id="camera-poses-bg" x="473" y="1147" width="155" height="78" rx="8" ry="8" fill="#fbf0ff" stroke="#e265c9" stroke-width="3" stroke-dasharray="8 6"/>
    <rect id="camera-generator-bg" x="726" y="1058" width="141" height="104" rx="10" ry="10" fill="#fff7ef" stroke="#f6bd8d" stroke-width="3"/>
    <rect id="semantic-fusion-panel-bg" x="712" y="1005" width="462" height="214" rx="0" ry="0" fill="#f5fbff" stroke="#d7d7d7" stroke-width="2"/>
    <rect id="semantic-fusion-box-bg" x="932" y="1087" width="213" height="71" rx="9" ry="9" fill="#effaff" stroke="#0f568f" stroke-width="4"/>
    <rect id="omnidirector-bg" x="793" y="1343" width="284" height="123" rx="15" ry="15" fill="#fff7f2" stroke="#c8c8c8" stroke-width="2"/>
    <rect id="camera-prompt-training-bg" x="1203" y="1004" width="609" height="293" rx="26" ry="26" fill="#fff9f4" stroke="#ffc89d" stroke-width="3"/>
    <rect id="mllm-bg" x="1475" y="1219" width="102" height="69" rx="10" ry="10" fill="#ffe3cc" stroke="#f26c2b" stroke-width="3"/>
  </g>
  <g id="assets">
    <image id="image-top-reference-video-frame-1" href="assets/top-reference-video-frame-1.png" x="33" y="73" width="193" height="109" preserveAspectRatio="xMidYMid meet"/>
    <image id="image-top-reference-video-frame-2" href="assets/top-reference-video-frame-2.png" x="247" y="73" width="193" height="109" preserveAspectRatio="xMidYMid meet"/>
    <image id="image-top-reference-video-frame-3" href="assets/top-reference-video-frame-3.png" x="34" y="207" width="193" height="109" preserveAspectRatio="xMidYMid meet"/>
    <image id="image-top-reference-video-frame-4" href="assets/top-reference-video-frame-4.png" x="248" y="207" width="193" height="109" preserveAspectRatio="xMidYMid meet"/>
    <image id="image-camera-extrinsics-plot" href="assets/camera-extrinsics-plot.png" x="812" y="114" width="205" height="160" preserveAspectRatio="xMidYMid meet"/>
    <image id="image-top-camera-grid-1" href="assets/top-camera-grid-1.png" x="1405" y="73" width="193" height="109" preserveAspectRatio="xMidYMid meet"/>
    <image id="image-top-camera-grid-2" href="assets/top-camera-grid-2.png" x="1619" y="73" width="193" height="109" preserveAspectRatio="xMidYMid meet"/>
    <image id="image-top-camera-grid-3" href="assets/top-camera-grid-3.png" x="1405" y="207" width="193" height="109" preserveAspectRatio="xMidYMid meet"/>
    <image id="image-top-camera-grid-4" href="assets/top-camera-grid-4.png" x="1619" y="207" width="193" height="109" preserveAspectRatio="xMidYMid meet"/>
    <image id="image-training-reference-image" href="assets/training-reference-image.png" x="45" y="427" width="243" height="138" preserveAspectRatio="xMidYMid meet"/>
    <image id="image-training-camera-grid" href="assets/training-camera-grid.png" x="39" y="606" width="254" height="133" preserveAspectRatio="xMidYMid meet"/>
    <image id="image-training-noisy-latent" href="assets/training-noisy-latent.png" x="39" y="789" width="260" height="133" preserveAspectRatio="xMidYMid meet"/>
    <image id="image-training-output-frame-1" href="assets/training-output-frame-1.png" x="1598" y="416" width="193" height="112" preserveAspectRatio="xMidYMid meet"/>
    <image id="image-training-output-frame-2" href="assets/training-output-frame-2.png" x="1598" y="550" width="193" height="112" preserveAspectRatio="xMidYMid meet"/>
    <image id="image-training-output-frame-3" href="assets/training-output-frame-3.png" x="1598" y="686" width="193" height="112" preserveAspectRatio="xMidYMid meet"/>
    <image id="image-training-output-frame-4" href="assets/training-output-frame-4.png" x="1598" y="823" width="193" height="112" preserveAspectRatio="xMidYMid meet"/>
    <image id="image-inference-camera-grid" href="assets/inference-camera-grid.png" x="414" y="1318" width="235" height="127" preserveAspectRatio="xMidYMid meet"/>
    <image id="image-input-reference-image-thumb" href="assets/input-reference-image-thumb.png" x="44" y="1409" width="60" height="62" preserveAspectRatio="xMidYMid meet"/>
    <image id="image-inference-output-frame-1" href="assets/inference-output-frame-1.png" x="1249" y="1336" width="119" height="169" preserveAspectRatio="xMidYMid meet"/>
    <image id="image-inference-output-frame-2" href="assets/inference-output-frame-2.png" x="1404" y="1336" width="119" height="169" preserveAspectRatio="xMidYMid meet"/>
    <image id="image-inference-output-frame-3" href="assets/inference-output-frame-3.png" x="1538" y="1336" width="119" height="169" preserveAspectRatio="xMidYMid meet"/>
    <image id="image-inference-output-frame-4" href="assets/inference-output-frame-4.png" x="1695" y="1336" width="119" height="169" preserveAspectRatio="xMidYMid meet"/>
    <image id="image-pose-estimator-snowflake" href="assets/pose-estimator-snowflake.png" x="539" y="126" width="48" height="49" preserveAspectRatio="xMidYMid meet"/>
    <image id="image-vae-snowflake-1" href="assets/vae-snowflake-1.png" x="407" y="463" width="43" height="48" preserveAspectRatio="xMidYMid meet"/>
    <image id="image-vae-snowflake-2" href="assets/vae-snowflake-2.png" x="407" y="635" width="43" height="48" preserveAspectRatio="xMidYMid meet"/>
  </g>
  <g id="sections">
    <rect id="pose-estimator-card-outline" x="522" y="84" width="193" height="219" rx="30" ry="30" fill="none" stroke="#6b9bca" stroke-width="2"/>
    <rect id="camera-extrinsics-dashed" x="800" y="73" width="253" height="236" rx="12" ry="12" fill="none" stroke="#d5d5d5" stroke-width="2" stroke-dasharray="6 4"/>
    <rect id="focal-length-card-outline" x="1064" y="126" width="255" height="124" rx="12" ry="12" fill="none" stroke="#b7d1f4" stroke-width="2" stroke-dasharray="6 4"/>
    <rect id="training-left-panel-outline" x="16" y="361" width="292" height="592" rx="32" ry="32" fill="none" stroke="#dddddd" stroke-width="2"/>
    <rect id="visual-encoding-outline" x="375" y="363" width="435" height="589" rx="44" ry="44" fill="none" stroke="#ffd760" stroke-width="2"/>
    <polygon id="vae-block-1" points="403,449 535,482 535,553 403,584" fill="#f7f7f7" stroke="#b5b5b5" stroke-width="2"/>
    <polygon id="vae-block-2" points="403,623 535,656 535,727 403,756" fill="#f7f7f7" stroke="#b5b5b5" stroke-width="2"/>
    <rect id="latent-image-cube-front" x="615" y="515" width="155" height="57" rx="0" ry="0" fill="#bde9ff" stroke="#79c9ef" stroke-width="1.6"/>
    <polygon id="latent-image-cube-top" points="615,515 632,498 787,498 770,515" fill="#bde9ff" stroke="#79c9ef" stroke-width="1.6"/>
    <polygon id="latent-image-cube-side" points="770,515 787,498 787,555 770,572" fill="#bde9ff" stroke="#79c9ef" stroke-width="1.6"/>
    <line id="latent-image-cube-grid-v1" x1="666.6666666666666" y1="515" x2="666.6666666666666" y2="572" fill="none" stroke="#79c9ef" stroke-width="1" />
    <line id="latent-image-cube-grid-v2" x1="718.3333333333334" y1="515" x2="718.3333333333334" y2="572" fill="none" stroke="#79c9ef" stroke-width="1" />
    <line id="latent-image-cube-grid-h1" x1="615" y1="543.5" x2="770" y2="543.5" fill="none" stroke="#79c9ef" stroke-width="1" />
    <rect id="latent-video-cube-front" x="619" y="664" width="154" height="80" rx="0" ry="0" fill="#fde1d0" stroke="#f2b9a0" stroke-width="1.6"/>
    <polygon id="latent-video-cube-top" points="619,664 637,646 791,646 773,664" fill="#fde1d0" stroke="#f2b9a0" stroke-width="1.6"/>
    <polygon id="latent-video-cube-side" points="773,664 791,646 791,726 773,744" fill="#fde1d0" stroke="#f2b9a0" stroke-width="1.6"/>
    <line id="latent-video-cube-grid-v1" x1="670.3333333333334" y1="664" x2="670.3333333333334" y2="744" fill="none" stroke="#f2b9a0" stroke-width="1" />
    <line id="latent-video-cube-grid-v2" x1="721.6666666666666" y1="664" x2="721.6666666666666" y2="744" fill="none" stroke="#f2b9a0" stroke-width="1" />
    <line id="latent-video-cube-grid-h1" x1="619" y1="704.0" x2="773" y2="704.0" fill="none" stroke="#f2b9a0" stroke-width="1" />
    <rect id="latent-noise-cube-front" x="619" y="841" width="154" height="106" rx="0" ry="0" fill="#ccebc4" stroke="#63b55f" stroke-width="1.6"/>
    <polygon id="latent-noise-cube-top" points="619,841 637,823 791,823 773,841" fill="#ccebc4" stroke="#63b55f" stroke-width="1.6"/>
    <polygon id="latent-noise-cube-side" points="773,841 791,823 791,929 773,947" fill="#ccebc4" stroke="#63b55f" stroke-width="1.6"/>
    <line id="latent-noise-cube-grid-v1" x1="670.3333333333334" y1="841" x2="670.3333333333334" y2="947" fill="none" stroke="#63b55f" stroke-width="1" />
    <line id="latent-noise-cube-grid-v2" x1="721.6666666666666" y1="841" x2="721.6666666666666" y2="947" fill="none" stroke="#63b55f" stroke-width="1" />
    <line id="latent-noise-cube-grid-h1" x1="619" y1="894.0" x2="773" y2="894.0" fill="none" stroke="#63b55f" stroke-width="1" />
    <rect id="frame-stack-blue" x="994" y="463" width="149" height="50" rx="0" ry="0" fill="#c6edff" stroke="#67a9e2" stroke-width="2"/>
    <rect id="frame-stack-peach" x="994" y="525" width="149" height="97" rx="0" ry="0" fill="#fbe0d2" stroke="#efb8a2" stroke-width="2"/>
    <rect id="frame-stack-green" x="994" y="636" width="149" height="97" rx="0" ry="0" fill="#cdebc9" stroke="#62b957" stroke-width="2"/>
    <line id="frame-stack-grid-blue-1044" x1="1044" y1="463" x2="1044" y2="513" fill="none" stroke="#67a9e2" stroke-width="1" />
    <line id="frame-stack-grid-peach-1044" x1="1044" y1="525" x2="1044" y2="622" fill="none" stroke="#efb8a2" stroke-width="1" />
    <line id="frame-stack-grid-green-1044" x1="1044" y1="636" x2="1044" y2="733" fill="none" stroke="#62b957" stroke-width="1" />
    <line id="frame-stack-grid-blue-1094" x1="1094" y1="463" x2="1094" y2="513" fill="none" stroke="#67a9e2" stroke-width="1" />
    <line id="frame-stack-grid-peach-1094" x1="1094" y1="525" x2="1094" y2="622" fill="none" stroke="#efb8a2" stroke-width="1" />
    <line id="frame-stack-grid-green-1094" x1="1094" y1="636" x2="1094" y2="733" fill="none" stroke="#62b957" stroke-width="1" />
    <rect id="zvis-stack-a" x="1324" y="479" width="48" height="42" rx="4" ry="4" fill="#a8d3f8" stroke="#92bfe6" stroke-width="2"/>
    <rect id="zvis-stack-b" x="1326" y="543" width="44" height="42" rx="4" ry="4" fill="#a8d3f8" stroke="#92bfe6" stroke-width="2"/>
    <rect id="zvis-stack-c" x="1326" y="629" width="44" height="42" rx="4" ry="4" fill="#a8d3f8" stroke="#92bfe6" stroke-width="2"/>
    <rect id="zt-stack-a" x="1326" y="704" width="48" height="42" rx="4" ry="4" fill="#c6e5c6" stroke="#a2c8a2" stroke-width="2"/>
    <rect id="zt-stack-b" x="1328" y="768" width="44" height="42" rx="4" ry="4" fill="#c6e5c6" stroke="#a2c8a2" stroke-width="2"/>
    <rect id="zt-stack-c" x="1328" y="854" width="44" height="42" rx="4" ry="4" fill="#c6e5c6" stroke="#a2c8a2" stroke-width="2"/>
    <rect id="mmdit-block-outline" x="1384" y="469" width="63" height="450" rx="0" ry="0" fill="none" stroke="#9ec5ea" stroke-width="2"/>
    <rect id="text-prompt-outline" x="972" y="834" width="222" height="109" rx="12" ry="12" fill="none" stroke="#c6c6c6" stroke-width="2"/>
    <rect id="input-video-outline" x="31" y="1054" width="213" height="123" rx="17" ry="17" fill="none" stroke="#7b45b4" stroke-width="4"/>
    <rect id="input-prompt-outline" x="31" y="1218" width="213" height="123" rx="17" ry="17" fill="none" stroke="#0f376f" stroke-width="4"/>
    <rect id="input-image-outline" x="31" y="1388" width="213" height="123" rx="17" ry="17" fill="none" stroke="#4c8750" stroke-width="4"/>
    <polygon id="icon-video-clapper" points="47,1101 89,1095 89,1134 47,1134" fill="#000000" stroke="#000000" stroke-width="2"/>
    <polygon id="icon-doc" points="49,1243 87,1243 105,1260 105,1300 49,1300" fill="#ffffff" stroke="#0f376f" stroke-width="4"/>
    <rect id="transition-frames-outline" x="473" y="1014" width="155" height="78" rx="8" ry="8" fill="none" stroke="#e265c9" stroke-width="3" stroke-dasharray="8 6"/>
    <rect id="camera-poses-outline" x="473" y="1147" width="155" height="78" rx="8" ry="8" fill="none" stroke="#e265c9" stroke-width="3" stroke-dasharray="8 6"/>
    <rect id="camera-generator-outline" x="726" y="1058" width="141" height="104" rx="10" ry="10" fill="none" stroke="#f6bd8d" stroke-width="3"/>
    <rect id="semantic-fusion-panel-outline" x="712" y="1005" width="462" height="214" rx="0" ry="0" fill="none" stroke="#d7d7d7" stroke-width="2"/>
    <rect id="semantic-fusion-box-outline" x="932" y="1087" width="213" height="71" rx="9" ry="9" fill="none" stroke="#0f568f" stroke-width="4"/>
    <rect id="omnidirector-outline" x="793" y="1343" width="284" height="123" rx="15" ry="15" fill="none" stroke="#c8c8c8" stroke-width="2"/>
    <rect id="omni-token-peach" x="824" y="1418" width="52" height="52" rx="0" ry="0" fill="#ffe1d0" stroke="#f2b9a0" stroke-width="2"/>
    <rect id="omni-token-green" x="913" y="1418" width="52" height="52" rx="0" ry="0" fill="#cdebc9" stroke="#62b957" stroke-width="2"/>
    <rect id="omni-token-blue" x="996" y="1418" width="52" height="52" rx="0" ry="0" fill="#c6edff" stroke="#67a9e2" stroke-width="2"/>
    <rect id="camera-prompt-training-outline" x="1203" y="1004" width="609" height="293" rx="26" ry="26" fill="none" stroke="#ffc89d" stroke-width="3"/>
    <rect id="training-list-outline" x="1322" y="1064" width="373" height="135" rx="8" ry="8" fill="none" stroke="#f26922" stroke-width="2" stroke-dasharray="6 3"/>
    <rect id="mllm-outline" x="1475" y="1219" width="102" height="69" rx="10" ry="10" fill="none" stroke="#f26c2b" stroke-width="3"/>
  </g>
  <g id="connectors">
    <line id="arrow-video-to-pose" x1="439" y1="197" x2="520" y2="197" fill="none" stroke="#111111" stroke-width="4" marker-end="url(#arrow-end)"/>
    <line id="arrow-pose-to-extrinsics" x1="716" y1="197" x2="800" y2="197" fill="none" stroke="#111111" stroke-width="4" marker-end="url(#arrow-end)"/>
    <line id="arrow-focal-to-grid" x1="1319" y1="197" x2="1403" y2="197" fill="none" stroke="#111111" stroke-width="4" marker-end="url(#arrow-end)"/>
    <line id="arrow-ref-image-to-vae1" x1="308" y1="522" x2="374" y2="522" fill="none" stroke="#111111" stroke-width="4" marker-end="url(#arrow-end)"/>
    <line id="arrow-grid-to-vae2" x1="308" y1="683" x2="374" y2="683" fill="none" stroke="#111111" stroke-width="4" marker-end="url(#arrow-end)"/>
    <line id="arrow-noise-to-zc" x1="308" y1="861" x2="610" y2="861" fill="none" stroke="#111111" stroke-width="4" marker-end="url(#arrow-end)"/>
    <line id="arrow-vae1-to-cube" x1="535" y1="522" x2="610" y2="522" fill="none" stroke="#111111" stroke-width="4" marker-end="url(#arrow-end)"/>
    <line id="arrow-vae2-to-cube" x1="535" y1="683" x2="612" y2="683" fill="none" stroke="#111111" stroke-width="4" marker-end="url(#arrow-end)"/>
    <line id="arrow-visual-to-frame" x1="829" y1="509" x2="974" y2="509" fill="none" stroke="#111111" stroke-width="5" marker-end="url(#arrow-end)"/>
    <line id="arrow-zc-to-frame" x1="829" y1="875" x2="909" y2="875" fill="none" stroke="#111111" stroke-width="4" marker-end="url(#arrow-end)"/>
    <line id="frame-merge-up" x1="909" y1="875" x2="909" y2="509" fill="none" stroke="#111111" stroke-width="3" />
    <line id="frame-merge-head" x1="909" y1="509" x2="910" y2="509" fill="none" stroke="#111111" stroke-width="3" marker-end="url(#arrow-end)"/>
    <line id="arrow-frame-to-patchify" x1="1164" y1="556" x2="1302" y2="556" fill="none" stroke="#111111" stroke-width="5" marker-end="url(#arrow-end)"/>
    <path id="arrow-mmdit-loop" d="M 1450 480 C 1504 486 1508 553 1456 552" fill="none" stroke="#1c69a3" stroke-width="4" marker-end="url(#arrow-end)"/>
    <line id="arrow-text-to-zt" x1="1195" y1="891" x2="1320" y2="891" fill="none" stroke="#111111" stroke-width="4" marker-end="url(#arrow-end)"/>
    <polygon id="arrow-patchify-to-output" points="1482,638 1544,638 1544,618 1596,668 1544,718 1544,698 1482,698" fill="#000000" stroke="#000000" stroke-width="1"/>
    <line id="infer-input-video-to-branch" x1="244" y1="1116" x2="279" y2="1116" fill="none" stroke="#7b45b4" stroke-width="4" />
    <line id="infer-branch-up" x1="279" y1="1116" x2="279" y2="1017" fill="none" stroke="#7b45b4" stroke-width="4" />
    <line id="infer-branch-down" x1="279" y1="1116" x2="279" y2="1184" fill="none" stroke="#7b45b4" stroke-width="4" />
    <line id="infer-branch-to-transition" x1="279" y1="1017" x2="470" y2="1017" fill="none" stroke="#7b45b4" stroke-width="4" marker-end="url(#arrow-end)"/>
    <line id="infer-branch-to-pose" x1="279" y1="1184" x2="472" y2="1184" fill="none" stroke="#7b45b4" stroke-width="4" marker-end="url(#arrow-end)"/>
    <line id="camera-poses-to-grid" x1="551" y1="1225" x2="551" y2="1315" fill="none" stroke="#7b45b4" stroke-width="4" marker-end="url(#arrow-end)"/>
    <line id="grid-to-omnidirector" x1="649" y1="1382" x2="756" y2="1382" fill="none" stroke="#7b45b4" stroke-width="4" marker-end="url(#arrow-end)"/>
    <line id="transition-to-generator-top" x1="628" y1="1053" x2="668" y2="1053" fill="none" stroke="#7b45b4" stroke-width="4" />
    <line id="pose-to-generator-bottom" x1="628" y1="1185" x2="668" y2="1185" fill="none" stroke="#7b45b4" stroke-width="4" />
    <line id="merge-to-generator" x1="668" y1="1053" x2="668" y2="1120" fill="none" stroke="#7b45b4" stroke-width="4" />
    <line id="merge-to-generator-2" x1="668" y1="1185" x2="668" y2="1120" fill="none" stroke="#7b45b4" stroke-width="4" />
    <line id="merge-to-generator-arrow" x1="668" y1="1120" x2="725" y2="1120" fill="none" stroke="#7b45b4" stroke-width="4" marker-end="url(#arrow-end)"/>
    <path id="semantic-input-brace" d="M 930 1063 L 930 1077 L 1137 1077 L 1137 1063" fill="none" stroke="#0f568f" stroke-width="3" />
    <line id="generator-to-semantic" x1="867" y1="1111" x2="932" y2="1111" fill="none" stroke="#e8742c" stroke-width="4" marker-end="url(#arrow-end)"/>
    <line id="semantic-to-final" x1="1038" y1="1158" x2="1038" y2="1195" fill="none" stroke="#0f568f" stroke-width="4" marker-end="url(#arrow-end)"/>
    <line id="final-to-omnidirector" x1="1038" y1="1225" x2="1038" y2="1342" fill="none" stroke="#0f568f" stroke-width="4" marker-end="url(#arrow-end)"/>
    <line id="ref-image-to-omni" x1="244" y1="1450" x2="793" y2="1450" fill="none" stroke="#4c8750" stroke-width="4" marker-end="url(#arrow-end)"/>
    <line id="training-input-left" x1="1265" y1="1200" x2="1265" y2="1255" fill="none" stroke="#000000" stroke-width="3" />
    <line id="training-input-bottom" x1="1265" y1="1255" x2="1475" y2="1255" fill="none" stroke="#000000" stroke-width="3" marker-end="url(#arrow-end)"/>
    <line id="training-label-down" x1="1740" y1="1189" x2="1740" y2="1255" fill="none" stroke="#000000" stroke-width="3" />
    <line id="training-label-to-mllm" x1="1740" y1="1255" x2="1577" y2="1255" fill="none" stroke="#000000" stroke-width="3" marker-end="url(#arrow-end)"/>
    <polygon id="omni-to-output" points="1080,1375 1162,1375 1162,1355 1210,1405 1162,1455 1162,1435 1080,1435" fill="#000000" stroke="#000000" stroke-width="1"/>
  </g>
  <g id="texts">
    <text id="title-camera-grid-rendering" x="966" y="47" font-family="var(--font-serif)" font-size="36" font-weight="700" fill="#c00000" text-anchor="middle"><tspan x="966" dy="0">Camera Grid Rendering</tspan></text>
    <text id="label-top-reference-video" x="210" y="55" font-family="var(--font-serif)" font-size="27" font-weight="400" fill="#111111" text-anchor="middle"><tspan x="210" dy="0">Reference Video V</tspan></text>
    <text id="label-top-camera-grid" x="1608" y="55" font-family="var(--font-serif)" font-size="27" font-weight="400" fill="#111111" text-anchor="middle"><tspan x="1608" dy="0">Camera Grid G</tspan></text>
    <text id="ellipsis-top-reference-video" x="235" y="201" font-family="var(--font-serif)" font-size="34" font-weight="700" fill="#111111" text-anchor="middle"><tspan x="235" dy="0">...</tspan></text>
    <text id="ellipsis-top-camera-grid" x="1608" y="201" font-family="var(--font-serif)" font-size="34" font-weight="700" fill="#111111" text-anchor="middle"><tspan x="1608" dy="0">...</tspan></text>
    <text id="pose-estimator-label" x="636" y="195" font-family="var(--font-serif)" font-size="28" font-weight="400" fill="#111111" text-anchor="middle"><tspan x="636" dy="0">Pose</tspan><tspan x="636" dy="35.0">Estimator</tspan></text>
    <text id="camera-extrinsics-label" x="929" y="106" font-family="var(--font-serif)" font-size="27" font-weight="400" fill="#111111" text-anchor="middle"><tspan x="929" dy="0">Camera Extrinsics</tspan></text>
    <text id="focal-length-label" x="1190" y="169" font-family="var(--font-serif)" font-size="27" font-weight="400" fill="#111111" text-anchor="middle"><tspan x="1190" dy="0">Focal Length</tspan></text>
    <g id="formula-focal-length" class="math formula" data-latex="f=a\times\max(H,W)" data-math-hash="0aa757f2a9" transform="translate(1073 201.905) scale(1.0433515)"><title>f=a\times\max(H,W)</title><path d="M 10.6641 0 L 10.2984 1.94594 L 8.06406 1.94594 Q 6.7925 1.94594 6.21563 2.44562 Q 5.63875 2.94531 5.35844 4.28188 L 5.10656 5.53719 L 8.95375 5.53719 L 8.60844 7.35313 L 4.76125 7.35313 L 2.35219 19.7559 L 0 19.7559 L 2.42531 7.35313 L 0.190937 7.35313 L 0.524062 5.53719 L 2.75844 5.53719 L 2.94531 4.54594 Q 3.42875 2.03125 4.63937 1.01562 Q 5.85406 0 8.45812 0 L 10.6641 0 Z M 15.21 7.95031 L 31.4844 7.95031 L 31.4844 10.0831 L 15.21 10.0831 L 15.21 7.95031 Z M 15.21 13.13 L 31.4844 13.13 L 31.4844 15.2872 L 15.21 15.2872 L 15.21 13.13 Z M 53.2731 11.6431 L 51.6846 19.7559 L 49.3487 19.7559 L 49.7793 17.5988 Q 48.7515 18.8663 47.4353 19.4959 Q 46.1231 20.1256 44.5103 20.1256 Q 42.6943 20.1256 41.5325 19.0166 Q 40.3746 17.9034 40.3746 16.1647 Q 40.3746 13.6744 42.3612 12.2281 Q 44.3478 10.7819 47.8375 10.7819 L 51.0875 10.7819 L 51.2134 10.1563 Q 51.2418 10.0547 51.254 9.93688 Q 51.2662 9.815 51.2662 9.56313 Q 51.2662 8.42969 50.344 7.80406 Q 49.4259 7.17438 47.7603 7.17438 Q 46.6187 7.17438 45.4162 7.46688 Q 44.2178 7.75938 42.9503 8.34438 L 43.3565 6.18313 Q 44.6768 5.6875 45.9403 5.44375 Q 47.2037 5.19594 48.3818 5.19594 Q 50.8965 5.19594 52.2087 6.28875 Q 53.525 7.3775 53.525 9.46156 Q 53.525 9.88 53.46 10.4447 Q 53.399 11.0094 53.2731 11.6431 Z M 50.7462 12.61 L 48.4103 12.61 Q 45.5381 12.61 44.1609 13.3778 Q 42.7837 14.1456 42.7837 15.7584 Q 42.7837 16.8756 43.4865 17.5094 Q 44.1934 18.1431 45.4365 18.1431 Q 47.3418 18.1431 48.7637 16.7781 Q 50.1856 15.4131 50.6446 13.13 L 50.7462 12.61 Z M 78.5368 5.78906 L 72.7314 11.6188 L 78.5368 17.42 L 77.0255 18.9556 L 71.1958 13.13 L 65.3702 18.9556 L 63.8711 17.42 L 69.6602 11.6188 L 63.8711 5.78906 L 65.3702 4.25344 L 71.1958 10.0831 L 77.0255 4.25344 L 78.5368 5.78906 Z M 100.675 8.26719 Q 101.552 6.69094 102.771 5.94344 Q 103.99 5.19594 105.639 5.19594 Q 107.861 5.19594 109.068 6.75188 Q 110.275 8.30375 110.275 11.1719 L 110.275 19.7559 L 107.926 19.7559 L 107.926 11.2491 Q 107.926 9.20563 107.199 8.21844 Q 106.476 7.22719 104.993 7.22719 Q 103.177 7.22719 102.121 8.43375 Q 101.069 9.63625 101.069 11.7203 L 101.069 19.7559 L 98.7208 19.7559 L 98.7208 11.2491 Q 98.7208 9.19344 97.9977 8.21031 Q 97.2745 7.22719 95.7633 7.22719 Q 93.9717 7.22719 92.9155 8.43781 Q 91.8633 9.64844 91.8633 11.7203 L 91.8633 19.7559 L 89.5152 19.7559 L 89.5152 5.53719 L 91.8633 5.53719 L 91.8633 7.74719 Q 92.6636 6.43906 93.7808 5.8175 Q 94.898 5.19594 96.4336 5.19594 Q 97.9855 5.19594 99.0702 5.98406 Q 100.155 6.76813 100.675 8.26719 Z M 121.395 12.61 Q 118.564 12.61 117.471 13.2559 Q 116.378 13.9019 116.378 15.4659 Q 116.378 16.7091 117.199 17.4403 Q 118.019 18.1675 119.425 18.1675 Q 121.371 18.1675 122.545 16.7903 Q 123.719 15.4131 123.719 13.13 L 123.719 12.61 L 121.395 12.61 Z M 126.055 11.6431 L 126.055 19.7559 L 123.719 19.7559 L 123.719 17.5988 Q 122.919 18.8906 121.724 19.5081 Q 120.53 20.1256 118.803 20.1256 Q 116.622 20.1256 115.33 18.8987 Q 114.042 17.6719 114.042 15.6163 Q 114.042 13.2194 115.647 12.0006 Q 117.255 10.7819 120.44 10.7819 L 123.719 10.7819 L 123.719 10.5503 Q 123.719 8.9375 122.659 8.05594 Q 121.598 7.17438 119.681 7.17438 Q 118.462 7.17438 117.304 7.46688 Q 116.15 7.75938 115.086 8.34438 L 115.086 6.18313 Q 116.366 5.6875 117.572 5.44375 Q 118.779 5.19594 119.92 5.19594 Q 123.008 5.19594 124.531 6.79656 Q 126.055 8.39313 126.055 11.6431 Z M 142.686 5.53719 L 137.543 12.4556 L 142.95 19.7559 L 140.196 19.7559 L 136.056 14.17 L 131.921 19.7559 L 129.162 19.7559 L 134.687 12.3175 L 129.633 5.53719 L 132.388 5.53719 L 136.158 10.6031 L 139.928 5.53719 L 142.686 5.53719 Z M 151.861 0.0284375 Q 150.163 2.94531 149.334 5.80531 Q 148.51 8.66125 148.51 11.5944 Q 148.51 14.5234 149.343 17.3997 Q 150.175 20.2759 151.861 23.1847 L 149.83 23.1847 Q 147.929 20.1988 146.982 17.3184 Q 146.036 14.4381 146.036 11.5944 Q 146.036 8.76281 146.974 5.89469 Q 147.917 3.0225 149.83 0.0284375 L 151.861 0.0284375 Z M 158.336 0.800313 L 160.916 0.800313 L 159.405 8.57188 L 168.708 8.57188 L 170.219 0.800313 L 172.799 0.800313 L 169.102 19.7559 L 166.526 19.7559 L 168.29 10.7291 L 158.986 10.7291 L 157.219 19.7559 L 154.644 19.7559 L 158.336 0.800313 Z M 176.543 16.5303 L 179.22 16.5303 L 179.22 18.7159 L 177.14 22.7784 L 175.503 22.7784 L 176.543 18.7159 L 176.543 16.5303 Z M 189.328 0.800313 L 191.814 0.800313 L 192.729 16.9244 L 199.879 0.800313 L 202.734 0.800313 L 203.673 16.9244 L 210.746 0.800313 L 213.346 0.800313 L 204.916 19.7559 L 201.69 19.7559 L 200.817 3.94875 L 193.72 19.7559 L 190.494 19.7559 L 189.328 0.800313 Z M 214.618 0.0284375 L 216.649 0.0284375 Q 218.55 3.0225 219.497 5.89469 Q 220.443 8.76281 220.443 11.5944 Q 220.443 14.4381 219.497 17.3184 Q 218.55 20.1988 216.649 23.1847 L 214.618 23.1847 Q 216.304 20.2759 217.137 17.3997 Q 217.969 14.5234 217.969 11.5944 Q 217.969 8.66125 217.137 5.80531 Q 216.304 2.94531 214.618 0.0284375 Z" fill="#111111"/></g>
    <text id="title-training" x="920" y="370" font-family="var(--font-serif)" font-size="36" font-weight="700" fill="#ffc000" text-anchor="middle"><tspan x="920" dy="0">Training</tspan></text>
    <text id="label-reference-image" x="169" y="423" font-family="var(--font-serif)" font-size="27" font-weight="400" fill="#111111" text-anchor="middle"><tspan x="169" dy="0">Reference Image I</tspan></text>
    <text id="label-training-camera-grid" x="169" y="598" font-family="var(--font-serif)" font-size="25" font-weight="400" fill="#111111" text-anchor="middle"><tspan x="169" dy="0">Camera Grid G</tspan></text>
    <text id="label-noisy-latent" x="169" y="785" font-family="var(--font-serif)" font-size="26" font-weight="400" fill="#111111" text-anchor="middle"><tspan x="169" dy="0">Noisy Latent</tspan></text>
    <text id="visual-encoding-title" x="606" y="419" font-family="var(--font-serif)" font-size="36" font-weight="700" fill="#8a3c00" text-anchor="middle"><tspan x="606" dy="0">Visual Encoding</tspan></text>
    <text id="vae-label-1" x="469" y="533" font-family="var(--font-serif)" font-size="26" font-weight="400" fill="#111111" text-anchor="middle"><tspan x="469" dy="0">3D VAE</tspan></text>
    <text id="vae-label-2" x="469" y="704" font-family="var(--font-serif)" font-size="26" font-weight="400" fill="#111111" text-anchor="middle"><tspan x="469" dy="0">3D VAE</tspan></text>
    <g id="formula-zi" class="math formula" data-latex="z_I\in R^{1\times H\times W\times C}" data-math-hash="9fa83023ec" transform="translate(602.5 470.456) scale(1.1365424)"><title>z_I\in R^{1\times H\times W\times C}</title><path d="M 2.86125 8.53125 L 13.1025 8.53125 L 12.7162 10.5 L 2.83875 19.935 L 10.995 19.935 L 10.6537 21.6562 L 0 21.6562 L 0.38625 19.6875 L 10.2675 10.2525 L 2.52 10.2525 L 2.86125 8.53125 Z M 15.5065 13.3455 L 17.1734 13.3455 L 14.7847 25.5938 L 13.1204 25.5938 L 15.5065 13.3455 Z M 26.9756 14.31 Q 27.0581 15.1762 27.7969 16.5825 Q 28.6631 18.21 30.3019 19.125 Q 31.9106 20.0138 33.6431 20.0287 L 41.8106 20.0287 L 41.8106 21.8925 L 33.6431 21.8925 Q 31.3931 21.8925 29.3119 20.7338 Q 27.2344 19.5712 26.1206 17.5087 Q 25.0069 15.4462 25.0069 13.2525 Q 25.0069 11.085 26.1206 9.0225 Q 27.2344 6.96 29.3119 5.79 Q 31.3931 4.61625 33.6431 4.61625 L 41.8106 4.61625 L 41.8106 6.48 L 33.6431 6.48 Q 31.9106 6.49125 30.3019 7.395 Q 28.6744 8.32125 27.7969 9.9375 Q 27.0469 11.3438 26.9419 12.435 L 41.8106 12.435 L 41.8106 14.31 L 26.9756 14.31 Z M 54.5864 6.105 L 53.3902 12.315 L 56.4352 12.315 Q 58.2277 12.315 59.3339 11.325 Q 60.4439 10.335 60.4439 8.74125 Q 60.4439 7.46625 59.6977 6.7875 Q 58.9552 6.105 57.5602 6.105 L 54.5864 6.105 Z M 58.9327 13.2525 Q 59.6827 13.4288 60.1814 14.1225 Q 60.6802 14.8125 61.3364 16.875 L 62.8214 21.6562 L 60.3277 21.6562 L 58.9552 17.1675 Q 58.4302 15.435 57.7364 14.85 Q 57.0464 14.2613 55.6177 14.2613 L 53.0039 14.2613 L 51.5602 21.6562 L 49.1827 21.6562 L 52.5914 4.15875 L 57.9239 4.15875 Q 60.3502 4.15875 61.6439 5.2575 Q 62.9414 6.3525 62.9414 8.415 Q 62.9414 10.2413 61.8389 11.58 Q 60.7364 12.915 58.9327 13.2525 Z M 68.9817 11.0749 L 71.6881 11.0749 L 71.6881 1.72987 L 68.7428 2.3205 L 68.7428 0.811125 L 71.6723 0.2205 L 73.3287 0.2205 L 73.3287 11.0749 L 76.0351 11.0749 L 76.0351 12.4688 L 68.9817 12.4688 L 68.9817 11.0749 Z M 92.6402 3.444 L 88.8891 7.21088 L 92.6402 10.9594 L 91.6637 11.9516 L 87.8968 8.18738 L 84.1326 11.9516 L 83.1639 10.9594 L 86.9046 7.21088 L 83.1639 3.444 L 84.1326 2.45175 L 87.8968 6.21863 L 91.6637 2.45175 L 92.6402 3.444 Z M 101.046 0.2205 L 102.713 0.2205 L 101.737 5.24212 L 107.748 5.24212 L 108.725 0.2205 L 110.391 0.2205 L 108.003 12.4688 L 106.338 12.4688 L 107.478 6.636 L 101.466 6.636 L 100.325 12.4688 L 98.6603 12.4688 L 101.046 0.2205 Z M 125.896 3.444 L 122.145 7.21088 L 125.896 10.9594 L 124.919 11.9516 L 121.152 8.18738 L 117.388 11.9516 L 116.419 10.9594 L 120.16 7.21088 L 116.419 3.444 L 117.388 2.45175 L 121.152 6.21863 L 124.919 2.45175 L 125.896 3.444 Z M 133.081 0.2205 L 134.688 0.2205 L 135.278 10.6391 L 139.898 0.2205 L 141.744 0.2205 L 142.35 10.6391 L 146.92 0.2205 L 148.6 0.2205 L 143.153 12.4688 L 141.069 12.4688 L 140.505 2.25488 L 135.919 12.4688 L 133.835 12.4688 L 133.081 0.2205 Z M 163.13 3.444 L 159.379 7.21088 L 163.13 10.9594 L 162.153 11.9516 L 158.386 8.18738 L 154.622 11.9516 L 153.653 10.9594 L 157.394 7.21088 L 153.653 3.444 L 154.622 2.45175 L 158.386 6.21863 L 162.153 2.45175 L 163.13 3.444 Z M 180.372 1.1655 L 180.036 2.91113 Q 179.248 2.11575 178.366 1.72987 Q 177.484 1.344 176.458 1.344 Q 175.056 1.344 173.993 2.01863 Q 172.932 2.69063 172.161 4.06875 Q 171.667 4.95337 171.407 5.943 Q 171.15 6.93262 171.15 7.93275 Q 171.15 9.60488 172.016 10.4843 Q 172.882 11.361 174.531 11.361 Q 175.67 11.361 176.72 10.9961 Q 177.77 10.6312 178.762 9.9015 L 178.379 11.8624 Q 177.403 12.2797 176.405 12.4924 Q 175.408 12.7076 174.408 12.7076 Q 172.053 12.7076 170.727 11.4293 Q 169.404 10.1482 169.404 7.86713 Q 169.404 6.40762 169.908 4.998 Q 170.412 3.58575 171.357 2.42025 Q 172.357 1.18125 173.641 0.590625 Q 174.925 0 176.631 0 Q 177.681 0 178.621 0.291375 Q 179.56 0.58275 180.372 1.1655 Z" fill="#111111"/></g>
    <g id="formula-zv" class="math formula" data-latex="z_v\in R^{T\times H\times W\times C}" data-math-hash="0ffa65fe41" transform="translate(602.5 613.815) scale(1.1085122)"><title>z_v\in R^{T\times H\times W\times C}</title><path d="M 2.86125 8.53125 L 13.1025 8.53125 L 12.7162 10.5 L 2.83875 19.935 L 10.995 19.935 L 10.6537 21.6562 L 0 21.6562 L 0.38625 19.6875 L 10.2675 10.2525 L 2.52 10.2525 L 2.86125 8.53125 Z M 13.8738 16.4062 L 15.475 16.4062 L 16.819 24.2156 L 21.2159 16.4062 L 22.8172 16.4062 L 17.5908 25.5938 L 15.5564 25.5938 L 13.8738 16.4062 Z M 31.9631 14.31 Q 32.0456 15.1762 32.7844 16.5825 Q 33.6506 18.21 35.2894 19.125 Q 36.8981 20.0138 38.6306 20.0287 L 46.7981 20.0287 L 46.7981 21.8925 L 38.6306 21.8925 Q 36.3806 21.8925 34.2994 20.7338 Q 32.2219 19.5712 31.1081 17.5087 Q 29.9944 15.4462 29.9944 13.2525 Q 29.9944 11.085 31.1081 9.0225 Q 32.2219 6.96 34.2994 5.79 Q 36.3806 4.61625 38.6306 4.61625 L 46.7981 4.61625 L 46.7981 6.48 L 38.6306 6.48 Q 36.8981 6.49125 35.2894 7.395 Q 33.6619 8.32125 32.7844 9.9375 Q 32.0344 11.3438 31.9294 12.435 L 46.7981 12.435 L 46.7981 14.31 L 31.9631 14.31 Z M 59.5739 6.105 L 58.3777 12.315 L 61.4227 12.315 Q 63.2152 12.315 64.3214 11.325 Q 65.4314 10.335 65.4314 8.74125 Q 65.4314 7.46625 64.6852 6.7875 Q 63.9427 6.105 62.5477 6.105 L 59.5739 6.105 Z M 63.9202 13.2525 Q 64.6702 13.4288 65.1689 14.1225 Q 65.6677 14.8125 66.3239 16.875 L 67.8089 21.6562 L 65.3152 21.6562 L 63.9427 17.1675 Q 63.4177 15.435 62.7239 14.85 Q 62.0339 14.2613 60.6052 14.2613 L 57.9914 14.2613 L 56.5477 21.6562 L 54.1702 21.6562 L 57.5789 4.15875 L 62.9114 4.15875 Q 65.3377 4.15875 66.6314 5.2575 Q 67.9289 6.3525 67.9289 8.415 Q 67.9289 10.2413 66.8264 11.58 Q 65.7239 12.915 63.9202 13.2525 Z M 72.8772 0.2205 L 83.2381 0.2205 L 82.9756 1.617 L 78.6023 1.617 L 76.5023 12.4688 L 74.8381 12.4688 L 76.9381 1.617 L 72.6068 1.617 L 72.8772 0.2205 Z M 97.2011 3.444 L 93.45 7.21088 L 97.2011 10.9594 L 96.2246 11.9516 L 92.4577 8.18738 L 88.6935 11.9516 L 87.7249 10.9594 L 91.4655 7.21088 L 87.7249 3.444 L 88.6935 2.45175 L 92.4577 6.21863 L 96.2246 2.45175 L 97.2011 3.444 Z M 105.607 0.2205 L 107.274 0.2205 L 106.298 5.24212 L 112.309 5.24212 L 113.285 0.2205 L 114.952 0.2205 L 112.564 12.4688 L 110.899 12.4688 L 112.039 6.636 L 106.027 6.636 L 104.885 12.4688 L 103.221 12.4688 L 105.607 0.2205 Z M 130.457 3.444 L 126.705 7.21088 L 130.457 10.9594 L 129.48 11.9516 L 125.713 8.18738 L 121.949 11.9516 L 120.98 10.9594 L 124.721 7.21088 L 120.98 3.444 L 121.949 2.45175 L 125.713 6.21863 L 129.48 2.45175 L 130.457 3.444 Z M 137.642 0.2205 L 139.249 0.2205 L 139.839 10.6391 L 144.459 0.2205 L 146.305 0.2205 L 146.911 10.6391 L 151.481 0.2205 L 153.161 0.2205 L 147.714 12.4688 L 145.63 12.4688 L 145.066 2.25488 L 140.48 12.4688 L 138.396 12.4688 L 137.642 0.2205 Z M 167.691 3.444 L 163.939 7.21088 L 167.691 10.9594 L 166.714 11.9516 L 162.947 8.18738 L 159.183 11.9516 L 158.214 10.9594 L 161.955 7.21088 L 158.214 3.444 L 159.183 2.45175 L 162.947 6.21863 L 166.714 2.45175 L 167.691 3.444 Z M 184.933 1.1655 L 184.597 2.91113 Q 183.809 2.11575 182.927 1.72987 Q 182.045 1.344 181.019 1.344 Q 179.617 1.344 178.554 2.01863 Q 177.493 2.69063 176.722 4.06875 Q 176.228 4.95337 175.968 5.943 Q 175.711 6.93262 175.711 7.93275 Q 175.711 9.60488 176.577 10.4843 Q 177.443 11.361 179.092 11.361 Q 180.231 11.361 181.281 10.9961 Q 182.331 10.6312 183.323 9.9015 L 182.94 11.8624 Q 181.964 12.2797 180.966 12.4924 Q 179.969 12.7076 178.969 12.7076 Q 176.614 12.7076 175.288 11.4293 Q 173.965 10.1482 173.965 7.86713 Q 173.965 6.40762 174.469 4.998 Q 174.973 3.58575 175.918 2.42025 Q 176.918 1.18125 178.202 0.590625 Q 179.486 0 181.192 0 Q 182.242 0 183.182 0.291375 Q 184.121 0.58275 184.933 1.1655 Z" fill="#111111"/></g>
    <g id="formula-zc" class="math formula" data-latex="z_c\in R^{T\times H\times W\times C}" data-math-hash="1ba2804c08" transform="translate(602.5 798.627) scale(1.1127571)"><title>z_c\in R^{T\times H\times W\times C}</title><path d="M 2.86125 8.53125 L 13.1025 8.53125 L 12.7162 10.5 L 2.83875 19.935 L 10.995 19.935 L 10.6537 21.6562 L 0 21.6562 L 0.38625 19.6875 L 10.2675 10.2525 L 2.52 10.2525 L 2.86125 8.53125 Z M 21.6753 16.758 L 21.3734 18.2516 Q 20.83 17.8579 20.2184 17.661 Q 19.6094 17.4641 18.9532 17.4641 Q 18.2313 17.4641 17.5777 17.7188 Q 16.9267 17.9734 16.483 18.4406 Q 15.7769 19.1546 15.391 20.1154 Q 15.0078 21.0735 15.0078 22.0999 Q 15.0078 23.3389 15.6273 23.9453 Q 16.2468 24.5516 17.5094 24.5516 Q 18.1315 24.5516 18.8324 24.3626 Q 19.5359 24.1736 20.2972 23.7982 L 20.011 25.2892 Q 19.3548 25.5596 18.6618 25.6961 Q 17.9688 25.8326 17.239 25.8326 Q 15.4094 25.8326 14.425 24.9191 Q 13.4407 24.003 13.4407 22.3046 Q 13.4407 20.8766 13.9525 19.6744 Q 14.4644 18.4721 15.475 17.514 Q 16.1628 16.8577 17.0894 16.5218 Q 18.0187 16.1858 19.1159 16.1858 Q 19.7564 16.1858 20.3864 16.3301 Q 21.019 16.4719 21.6753 16.758 Z M 31.2577 14.31 Q 31.3402 15.1762 32.0789 16.5825 Q 32.9452 18.21 34.5839 19.125 Q 36.1927 20.0138 37.9252 20.0287 L 46.0927 20.0287 L 46.0927 21.8925 L 37.9252 21.8925 Q 35.6752 21.8925 33.5939 20.7338 Q 31.5164 19.5712 30.4027 17.5087 Q 29.2889 15.4462 29.2889 13.2525 Q 29.2889 11.085 30.4027 9.0225 Q 31.5164 6.96 33.5939 5.79 Q 35.6752 4.61625 37.9252 4.61625 L 46.0927 4.61625 L 46.0927 6.48 L 37.9252 6.48 Q 36.1927 6.49125 34.5839 7.395 Q 32.9564 8.32125 32.0789 9.9375 Q 31.3289 11.3438 31.2239 12.435 L 46.0927 12.435 L 46.0927 14.31 L 31.2577 14.31 Z M 58.8684 6.105 L 57.6722 12.315 L 60.7172 12.315 Q 62.5097 12.315 63.6159 11.325 Q 64.7259 10.335 64.7259 8.74125 Q 64.7259 7.46625 63.9797 6.7875 Q 63.2372 6.105 61.8422 6.105 L 58.8684 6.105 Z M 63.2147 13.2525 Q 63.9647 13.4288 64.4634 14.1225 Q 64.9622 14.8125 65.6184 16.875 L 67.1034 21.6562 L 64.6097 21.6562 L 63.2372 17.1675 Q 62.7122 15.435 62.0184 14.85 Q 61.3284 14.2613 59.8997 14.2613 L 57.2859 14.2613 L 55.8422 21.6562 L 53.4647 21.6562 L 56.8734 4.15875 L 62.2059 4.15875 Q 64.6322 4.15875 65.9259 5.2575 Q 67.2234 6.3525 67.2234 8.415 Q 67.2234 10.2413 66.1209 11.58 Q 65.0184 12.915 63.2147 13.2525 Z M 72.1717 0.2205 L 82.5326 0.2205 L 82.2701 1.617 L 77.8969 1.617 L 75.7969 12.4688 L 74.1326 12.4688 L 76.2326 1.617 L 71.9014 1.617 L 72.1717 0.2205 Z M 96.4956 3.444 L 92.7445 7.21088 L 96.4956 10.9594 L 95.5192 11.9516 L 91.7523 8.18738 L 87.988 11.9516 L 87.0194 10.9594 L 90.76 7.21088 L 87.0194 3.444 L 87.988 2.45175 L 91.7523 6.21863 L 95.5192 2.45175 L 96.4956 3.444 Z M 104.902 0.2205 L 106.569 0.2205 L 105.592 5.24212 L 111.604 5.24212 L 112.58 0.2205 L 114.247 0.2205 L 111.858 12.4688 L 110.194 12.4688 L 111.333 6.636 L 105.322 6.636 L 104.18 12.4688 L 102.516 12.4688 L 104.902 0.2205 Z M 129.751 3.444 L 126 7.21088 L 129.751 10.9594 L 128.775 11.9516 L 125.008 8.18738 L 121.243 11.9516 L 120.275 10.9594 L 124.015 7.21088 L 120.275 3.444 L 121.243 2.45175 L 125.008 6.21863 L 128.775 2.45175 L 129.751 3.444 Z M 136.937 0.2205 L 138.543 0.2205 L 139.134 10.6391 L 143.754 0.2205 L 145.599 0.2205 L 146.206 10.6391 L 150.776 0.2205 L 152.456 0.2205 L 147.009 12.4688 L 144.925 12.4688 L 144.36 2.25488 L 139.774 12.4688 L 137.69 12.4688 L 136.937 0.2205 Z M 166.985 3.444 L 163.234 7.21088 L 166.985 10.9594 L 166.009 11.9516 L 162.242 8.18738 L 158.477 11.9516 L 157.509 10.9594 L 161.249 7.21088 L 157.509 3.444 L 158.477 2.45175 L 162.242 6.21863 L 166.009 2.45175 L 166.985 3.444 Z M 184.227 1.1655 L 183.891 2.91113 Q 183.104 2.11575 182.222 1.72987 Q 181.34 1.344 180.313 1.344 Q 178.911 1.344 177.848 2.01863 Q 176.788 2.69063 176.016 4.06875 Q 175.523 4.95337 175.263 5.943 Q 175.005 6.93262 175.005 7.93275 Q 175.005 9.60488 175.872 10.4843 Q 176.738 11.361 178.386 11.361 Q 179.526 11.361 180.576 10.9961 Q 181.626 10.6312 182.618 9.9015 L 182.235 11.8624 Q 181.258 12.2797 180.261 12.4924 Q 179.263 12.7076 178.263 12.7076 Q 175.908 12.7076 174.583 11.4293 Q 173.26 10.1482 173.26 7.86713 Q 173.26 6.40762 173.764 4.998 Q 174.268 3.58575 175.213 2.42025 Q 176.213 1.18125 177.497 0.590625 Q 178.78 0 180.486 0 Q 181.536 0 182.476 0.291375 Q 183.416 0.58275 184.227 1.1655 Z" fill="#111111"/></g>
    <text id="frame-concat-label" x="1068" y="398" font-family="var(--font-serif)" font-size="27" font-weight="400" fill="#111111" text-anchor="middle"><tspan x="1068" dy="0">Frame</tspan><tspan x="1068" dy="33.75">Concatenation</tspan></text>
    <text id="patchify-label" x="1232" y="543" font-family="var(--font-serif)" font-size="27" font-weight="400" fill="#111111" text-anchor="middle"><tspan x="1232" dy="0">Patchify</tspan></text>
    <text id="zvis-stack-dots" x="1348" y="591" font-family="var(--font-serif)" font-size="22" font-weight="400" fill="#111111" text-anchor="middle"><tspan x="1348" dy="0">...</tspan></text>
    <text id="zt-stack-dots" x="1350" y="816" font-family="var(--font-serif)" font-size="22" font-weight="400" fill="#111111" text-anchor="middle"><tspan x="1350" dy="0">...</tspan></text>
    <g id="label-zvis" class="math formula" data-latex="z_{\mathrm{vis}}" data-math-hash="9b6892a9cb" transform="translate(1311 441.803) scale(1.9879913)"><title>z_{\mathrm{vis}}</title><path d="M 2.86125 0 L 13.1025 0 L 12.7162 1.96875 L 2.83875 11.4037 L 10.995 11.4037 L 10.6537 13.125 L 0 13.125 L 0.38625 11.1562 L 10.2675 1.72125 L 2.52 1.72125 L 2.86125 0 Z M 13.1703 7.875 L 14.7689 7.875 L 17.6407 15.5846 L 20.5124 7.875 L 22.111 7.875 L 18.6644 17.0625 L 16.6143 17.0625 L 13.1703 7.875 Z M 24.194 7.875 L 25.7033 7.875 L 25.7033 17.0625 L 24.194 17.0625 L 24.194 7.875 Z M 24.194 4.29712 L 25.7033 4.29712 L 25.7033 6.21075 L 24.194 6.21075 L 24.194 4.29712 Z M 34.7179 8.14538 L 34.7179 9.57338 Q 34.08 9.24525 33.3897 9.0825 Q 32.7019 8.91712 31.9617 8.91712 Q 30.8382 8.91712 30.2764 9.261 Q 29.7147 9.60487 29.7147 10.2952 Q 29.7147 10.8202 30.1163 11.1195 Q 30.5179 11.4187 31.7333 11.6891 L 32.2504 11.8046 Q 33.8569 12.1485 34.5342 12.7759 Q 35.2114 13.4032 35.2114 14.5267 Q 35.2114 15.8077 34.1982 16.5559 Q 33.1849 17.3014 31.413 17.3014 Q 30.6754 17.3014 29.8748 17.157 Q 29.0742 17.0126 28.1895 16.7265 L 28.1895 15.1672 Q 29.0269 15.603 29.838 15.8209 Q 30.6492 16.0361 31.4472 16.0361 Q 32.5129 16.0361 33.0852 15.6712 Q 33.66 15.3064 33.66 14.6422 Q 33.66 14.028 33.2453 13.6999 Q 32.8332 13.3717 31.4288 13.0672 L 30.9038 12.9439 Q 29.502 12.6499 28.8773 12.0382 Q 28.2552 11.4266 28.2552 10.3609 Q 28.2552 9.06412 29.1739 8.36062 Q 30.0927 7.6545 31.7832 7.6545 Q 32.6179 7.6545 33.3555 7.77788 Q 34.0958 7.89863 34.7179 8.14538 Z" fill="#111111"/></g>
    <g id="label-zt" class="math formula" data-latex="z_t" data-math-hash="3b5d4f4bf9" transform="translate(1325.72 699.5) scale(2.0512821)"><title>z_t</title><path d="M 2.86125 0 L 13.1025 0 L 12.7162 1.96875 L 2.83875 11.4037 L 10.995 11.4037 L 10.6537 13.125 L 0 13.125 L 0.38625 11.1562 L 10.2675 1.72125 L 2.52 1.72125 L 2.86125 0 Z M 19.7722 7.875 L 19.5438 9.04838 L 16.5329 9.04838 L 15.5564 14.0359 Q 15.5065 14.3141 15.4829 14.5031 Q 15.4593 14.6921 15.4593 14.7971 Q 15.4593 15.3221 15.7743 15.561 Q 16.0893 15.7999 16.7875 15.7999 L 18.3127 15.7999 L 18.058 17.0625 L 16.6143 17.0625 Q 15.2703 17.0625 14.6088 16.5375 Q 13.9499 16.0125 13.9499 14.9467 Q 13.9499 14.7577 13.9735 14.532 Q 13.9972 14.3062 14.047 14.0359 L 15.0235 9.04838 L 13.7425 9.04838 L 13.9814 7.875 L 15.2362 7.875 L 15.7454 5.26575 L 17.2548 5.26575 L 16.7534 7.875 L 19.7722 7.875 Z" fill="#111111"/></g>
    <text id="mmdit-block-label" x="1416" y="550" font-family="var(--font-serif)" font-size="18" font-weight="700" fill="#1c69a3" text-anchor="middle"><tspan x="1416" dy="0">M</tspan><tspan x="1416" dy="22.5">M</tspan><tspan x="1416" dy="22.5">D</tspan><tspan x="1416" dy="22.5">i</tspan><tspan x="1416" dy="22.5">T</tspan><tspan x="1416" dy="22.5">B</tspan><tspan x="1416" dy="22.5">l</tspan><tspan x="1416" dy="22.5">o</tspan><tspan x="1416" dy="22.5">c</tspan><tspan x="1416" dy="22.5">k</tspan></text>
    <text id="multiply-x" x="1522" y="520" font-family="var(--font-serif)" font-size="34" font-weight="400" fill="#1c69a3" text-anchor="middle"><tspan x="1522" dy="0">x</tspan></text>
    <text id="multiply-n" x="1522" y="566" font-family="var(--font-serif)" font-size="34" font-weight="400" fill="#1c69a3" text-anchor="middle"><tspan x="1522" dy="0">N</tspan></text>
    <text id="text-prompt-label" x="1083" y="821" font-family="var(--font-serif)" font-size="26" font-weight="400" fill="#111111" text-anchor="middle"><tspan x="1083" dy="0">Text</tspan></text>
    <g id="text-prompt-t-prime" class="math formula" data-latex="T&#x27;" data-math-hash="5ae8230e0b" transform="translate(1122.02 805) scale(1.8788784)"><title>T'</title><path d="M 0.354062 0.992063 L 13.9219 0.992063 L 13.5781 2.82081 L 7.85125 2.82081 L 5.10125 17.0314 L 2.92188 17.0314 L 5.67188 2.82081 L 0 2.82081 L 0.354062 0.992063 Z M 14.5783 7.77459 Q 14.4796 7.74572 14.4796 7.62541 L 16.3613 0.630438 Q 16.4503 0.3465 16.6669 0.17325 Q 16.8859 0 17.165 0 Q 17.5259 0 17.8002 0.238219 Q 18.0745 0.474031 18.0745 0.834969 Q 18.0745 0.991375 17.9927 1.18869 L 15.2111 7.84197 Q 15.1582 7.94784 15.0667 7.94784 Q 14.9849 7.94784 14.8069 7.87325 Q 14.6312 7.79625 14.5783 7.77459 Z" fill="#111111"/></g>
    <text id="text-prompt-lines" x="1083" y="860" font-family="var(--font-serif)" font-size="22" font-weight="400" fill="#8a5c22" text-anchor="middle"><tspan x="1083" dy="0">Referencing</tspan><tspan x="1083" dy="27.5">camera motion</tspan><tspan x="1083" dy="27.5">from the video</tspan></text>
    <text id="training-output-label" x="1682" y="398" font-family="var(--font-serif)" font-size="27" font-weight="400" fill="#111111" text-anchor="middle"><tspan x="1682" dy="0">Output</tspan></text>
    <text id="title-inference" x="918" y="994" font-family="var(--font-serif)" font-size="36" font-weight="700" fill="#0070c0" text-anchor="middle"><tspan x="918" dy="0">Inference</tspan></text>
    <text id="input-video-label" x="160" y="1113" font-family="var(--font-serif)" font-size="25" font-weight="400" fill="#7b45b4" text-anchor="middle"><tspan x="160" dy="0">Reference</tspan><tspan x="160" dy="31.25">Video V</tspan></text>
    <text id="input-user-prompt-label" x="161" y="1293" font-family="var(--font-serif)" font-size="25" font-weight="400" fill="#0f376f" text-anchor="middle"><tspan x="161" dy="0">User</tspan></text>
    <text id="input-user-prompt-label-2" x="161" y="1324" font-family="var(--font-serif)" font-size="25" font-weight="400" fill="#0f376f" text-anchor="middle"><tspan x="161" dy="0">Prompt</tspan></text>
    <g id="input-user-prompt-tu" class="math formula" data-latex="T_u" data-math-hash="670315f0e3" transform="translate(196.721 1307) scale(1.5099871)"><title>T_u</title><path d="M 0.354062 0 L 13.9219 0 L 13.5781 1.82875 L 7.85125 1.82875 L 5.10125 16.0394 L 2.92188 16.0394 L 5.67188 1.82875 L 0 1.82875 L 0.354062 0 Z M 13.523 16.3089 L 14.5096 11.2269 L 15.9004 11.2269 L 14.9139 16.2583 Q 14.8393 16.6265 14.8056 16.8888 Q 14.7719 17.1511 14.7719 17.3243 Q 14.7719 17.9644 15.1617 18.3157 Q 15.5539 18.6646 16.2686 18.6646 Q 17.3803 18.6646 18.1912 17.9138 Q 19.0045 17.1607 19.2523 15.8878 L 20.1787 11.2269 L 21.5623 11.2269 L 19.9309 19.6487 L 18.5473 19.6487 L 18.824 18.3253 Q 18.2393 19.0616 17.4308 19.4659 Q 16.6223 19.8677 15.7127 19.8677 Q 14.6059 19.8677 13.9899 19.2613 Q 13.3739 18.655 13.3739 17.5722 Q 13.3739 17.3484 13.4099 17.0091 Q 13.4484 16.6698 13.523 16.3089 Z" fill="#111111"/></g>
    <text id="input-reference-image-label" x="159" y="1448" font-family="var(--font-serif)" font-size="25" font-weight="400" fill="#4c8750" text-anchor="middle"><tspan x="159" dy="0">Reference</tspan></text>
    <text id="input-reference-image-label-2" x="159" y="1479" font-family="var(--font-serif)" font-size="25" font-weight="400" fill="#4c8750" text-anchor="middle"><tspan x="159" dy="0">Image</tspan></text>
    <g id="input-reference-image-i" class="math formula" data-latex="I" data-math-hash="ca73ab6556" transform="translate(206.367 1463) scale(1.7457039)"><title>I</title><path d="M 3.12469 0 L 5.3075 0 L 2.17937 16.0394 L 0 16.0394 L 3.12469 0 Z" fill="#111111"/></g>
    <text id="transition-detection" x="376" y="1050" font-family="var(--font-serif)" font-size="26" font-weight="400" fill="#111111" text-anchor="middle"><tspan x="376" dy="0">Transition</tspan><tspan x="376" dy="32.5">Detection</tspan></text>
    <text id="pose-estimation" x="378" y="1175" font-family="var(--font-serif)" font-size="26" font-weight="400" fill="#111111" text-anchor="middle"><tspan x="378" dy="0">Pose</tspan><tspan x="378" dy="32.5">Estimation</tspan></text>
    <text id="transition-frames-label" x="551" y="1048" font-family="var(--font-serif)" font-size="25" font-weight="400" fill="#914ab8" text-anchor="middle"><tspan x="551" dy="0">Transition</tspan><tspan x="551" dy="31.25">Frames</tspan></text>
    <text id="camera-poses-label" x="551" y="1181" font-family="var(--font-serif)" font-size="25" font-weight="400" fill="#914ab8" text-anchor="middle"><tspan x="551" dy="0">Camera</tspan><tspan x="551" dy="31.25">Poses</tspan></text>
    <text id="camera-generator-label" x="796" y="1087" font-family="var(--font-serif)" font-size="20" font-weight="400" fill="#e56c20" text-anchor="middle"><tspan x="796" dy="0">Camera</tspan><tspan x="796" dy="25.0">Prompt</tspan><tspan x="796" dy="25.0">Generator</tspan></text>
    <text id="semantic-user-label" x="985" y="1030" font-family="var(--font-serif)" font-size="20" font-weight="400" fill="#124a7d" text-anchor="middle"><tspan x="985" dy="0">User</tspan></text>
    <text id="semantic-user-prompt" x="985" y="1056" font-family="var(--font-serif)" font-size="20" font-weight="400" fill="#124a7d" text-anchor="middle"><tspan x="985" dy="0">Prompt</tspan></text>
    <g id="semantic-tu" class="math formula" data-latex="T_u" data-math-hash="670315f0e3" transform="translate(1021.89 1043) scale(1.5994679)"><title>T_u</title><path d="M 0.289687 0 L 11.3906 0 L 11.1094 1.49625 L 6.42375 1.49625 L 4.17375 13.1231 L 2.39062 13.1231 L 4.64062 1.49625 L 0 1.49625 L 0.289687 0 Z M 11.0643 13.3436 L 11.8715 9.18562 L 13.0094 9.18562 L 12.2022 13.3023 Q 12.1412 13.6035 12.1136 13.8181 Q 12.0861 14.0327 12.0861 14.1744 Q 12.0861 14.6981 12.405 14.9856 Q 12.7259 15.271 13.3106 15.271 Q 14.2202 15.271 14.8837 14.6568 Q 15.5491 14.0406 15.7519 12.9991 L 16.5099 9.18562 L 17.6419 9.18562 L 16.3071 16.0762 L 15.1751 16.0762 L 15.4015 14.9934 Q 14.9231 15.5959 14.2616 15.9266 Q 13.6001 16.2554 12.8559 16.2554 Q 11.9502 16.2554 11.4462 15.7593 Q 10.9422 15.2632 10.9422 14.3772 Q 10.9422 14.1941 10.9718 13.9165 Q 11.0033 13.6389 11.0643 13.3436 Z" fill="#111111"/></g>
    <text id="semantic-reference-label" x="1097" y="1030" font-family="var(--font-serif)" font-size="20" font-weight="400" fill="#5a9851" text-anchor="middle"><tspan x="1097" dy="0">Reference</tspan></text>
    <text id="semantic-reference-image" x="1097" y="1056" font-family="var(--font-serif)" font-size="20" font-weight="400" fill="#5a9851" text-anchor="middle"><tspan x="1097" dy="0">Image</tspan></text>
    <g id="semantic-i" class="math formula" data-latex="I" data-math-hash="ca73ab6556" transform="translate(1144.03 1044) scale(1.8288327)"><title>I</title><path d="M 2.55656 0 L 4.3425 0 L 1.78312 13.1231 L 0 13.1231 L 2.55656 0 Z" fill="#111111"/></g>
    <text id="semantic-fusion-label" x="1038" y="1125" font-family="var(--font-serif)" font-size="25" font-weight="400" fill="#1d65a0" text-anchor="middle"><tspan x="1038" dy="0">Semantic</tspan><tspan x="1038" dy="31.25">Fusion</tspan></text>
    <text id="final-prompt-label" x="1038" y="1217" font-family="var(--font-serif)" font-size="23" font-weight="400" fill="#111111" text-anchor="middle"><tspan x="1038" dy="0">Final Prompt</tspan></text>
    <g id="final-prompt-tf" class="math formula" data-latex="T_f" data-math-hash="288fb354b1" transform="translate(1109.85 1202) scale(1.5675297)"><title>T_f</title><path d="M 0.321875 0 L 12.6562 0 L 12.3438 1.6625 L 7.1375 1.6625 L 4.6375 14.5813 L 2.65625 14.5813 L 5.15625 1.6625 L 0 1.6625 L 0.321875 0 Z M 18.049 7.22469 L 17.8521 8.2725 L 16.649 8.2725 Q 15.9643 8.2725 15.6537 8.54156 Q 15.343 8.81063 15.1921 9.53031 L 15.0565 10.2063 L 17.128 10.2063 L 16.9421 11.1841 L 14.8705 11.1841 L 13.5734 17.8625 L 12.3068 17.8625 L 13.6127 11.1841 L 12.4096 11.1841 L 12.589 10.2063 L 13.7921 10.2063 L 13.8927 9.6725 Q 14.153 8.31844 14.8049 7.77156 Q 15.459 7.22469 16.8612 7.22469 L 18.049 7.22469 Z" fill="#111111"/></g>
    <text id="omnidirector-label" x="949" y="1401" font-family="var(--font-serif)" font-size="34" font-weight="700" fill="#111111" text-anchor="middle"><tspan x="949" dy="0">OmniDirector</tspan></text>
    <text id="camera-prompt-training-title" x="1510" y="1038" font-family="var(--font-serif)" font-size="25" font-weight="400" fill="#e56c20" text-anchor="middle"><tspan x="1510" dy="0">Camera Prompt Generator Training</tspan></text>
    <text id="transition-frames-f" x="1258" y="1090" font-family="var(--font-serif)" font-size="18" font-weight="400" fill="#111111" text-anchor="middle"><tspan x="1258" dy="0">Transition</tspan><tspan x="1258" dy="22.5">Frames</tspan></text>
    <g id="transition-f" class="math formula" data-latex="F" data-math-hash="e69f20e9f6" transform="translate(1300.09 1082) scale(1.6459494)"><title>F</title><path d="M 2.13047 0 L 8.4 0 L 8.15859 1.24687 L 3.36094 1.24687 L 2.73281 4.46953 L 7.06875 4.46953 L 6.825 5.71406 L 2.48906 5.71406 L 1.47188 10.9359 L 0 10.9359 L 2.13047 0 Z" fill="#111111"/></g>
    <text id="camera-poses-p" x="1258" y="1162" font-family="var(--font-serif)" font-size="18" font-weight="400" fill="#111111" text-anchor="middle"><tspan x="1258" dy="0">Camera</tspan><tspan x="1258" dy="22.5">Poses</tspan></text>
    <g id="camera-poses-p-formula" class="math formula" data-latex="P" data-math-hash="511993d3c9" transform="translate(1299.91 1153) scale(1.6459494)"><title>P</title><path d="M 2.13047 0 L 5.55234 0 Q 7.04531 0 7.82812 0.696094 Q 8.61328 1.39219 8.61328 2.73281 Q 8.61328 4.53516 7.45547 5.53828 Q 6.29766 6.54141 4.20469 6.54141 L 2.34375 6.54141 L 1.48594 10.9359 L 0 10.9359 L 2.13047 0 Z M 3.37734 1.21641 L 2.58516 5.325 L 4.44609 5.325 Q 5.70469 5.325 6.37734 4.68047 Q 7.05234 4.03594 7.05234 2.83594 Q 7.05234 2.06719 6.59531 1.64297 Q 6.13828 1.21641 5.31094 1.21641 L 3.37734 1.21641 Z" fill="#111111"/></g>
    <text id="plus-label" x="1266" y="1130" font-family="var(--font-serif)" font-size="25" font-weight="400" fill="#111111" text-anchor="middle"><tspan x="1266" dy="0">+</tspan></text>
    <text id="training-list-text" x="1350" y="1088" font-family="var(--font-serif)" font-size="21" font-weight="400" fill="#111111" text-anchor="start"><tspan x="1350" dy="0">1. Multi-shot relationship analyzing</tspan><tspan x="1350" dy="26.25">2. Pose-to-prompt translation</tspan><tspan x="1350" dy="26.25">3. Video-based correction</tspan><tspan x="1350" dy="26.25">4. Human annotation</tspan></text>
    <text id="camera-prompt-tc-label" x="1740" y="1141" font-family="var(--font-serif)" font-size="23" font-weight="400" fill="#111111" text-anchor="middle"><tspan x="1740" dy="0">Camera</tspan></text>
    <text id="camera-prompt-tc-label-2" x="1740" y="1170" font-family="var(--font-serif)" font-size="23" font-weight="400" fill="#111111" text-anchor="middle"><tspan x="1740" dy="0">Prompt</tspan></text>
    <g id="camera-prompt-tc" class="math formula" data-latex="T_c" data-math-hash="0fc14d2fa3" transform="translate(1784.42 1156) scale(1.5994679)"><title>T_c</title><path d="M 0.289687 0 L 11.3906 0 L 11.1094 1.49625 L 6.42375 1.49625 L 4.17375 13.1231 L 2.39062 13.1231 L 4.64062 1.49625 L 0 1.49625 L 0.289687 0 Z M 16.9765 9.44944 L 16.7501 10.5697 Q 16.3425 10.2743 15.8838 10.1267 Q 15.4271 9.97903 14.9349 9.97903 Q 14.3935 9.97903 13.9032 10.17 Q 13.415 10.361 13.0823 10.7114 Q 12.5527 11.2469 12.2633 11.9675 Q 11.9758 12.6861 11.9758 13.4558 Q 11.9758 14.3851 12.4405 14.8399 Q 12.9051 15.2947 13.8521 15.2947 Q 14.3186 15.2947 14.8443 15.1529 Q 15.3719 15.0112 15.9429 14.7296 L 15.7283 15.8479 Q 15.2361 16.0507 14.7163 16.153 Q 14.1966 16.2554 13.6493 16.2554 Q 12.2771 16.2554 11.5388 15.5703 Q 10.8005 14.8832 10.8005 13.6094 Q 10.8005 12.5384 11.1844 11.6367 Q 11.5683 10.735 12.3263 10.0164 Q 12.8421 9.52425 13.5371 9.27225 Q 14.234 9.02025 15.0569 9.02025 Q 15.5373 9.02025 16.0098 9.12853 Q 16.4843 9.23484 16.9765 9.44944 Z" fill="#111111"/></g>
    <text id="mllm-label" x="1526" y="1264" font-family="var(--font-serif)" font-size="26" font-weight="400" fill="#111111" text-anchor="middle"><tspan x="1526" dy="0">MLLM</tspan></text>
    <text id="input-label" x="1390" y="1242" font-family="var(--font-serif)" font-size="20" font-weight="400" fill="#111111" text-anchor="middle"><tspan x="1390" dy="0">Input</tspan></text>
    <text id="label-label" x="1690" y="1242" font-family="var(--font-serif)" font-size="20" font-weight="400" fill="#111111" text-anchor="middle"><tspan x="1690" dy="0">Label</tspan></text>
    <text id="bottom-output-label" x="1536" y="1330" font-family="var(--font-serif)" font-size="27" font-weight="400" fill="#111111" text-anchor="middle"><tspan x="1536" dy="0">Output</tspan></text>
    <text id="bottom-output-ellipsis" x="1665" y="1422" font-family="var(--font-serif)" font-size="34" font-weight="700" fill="#111111" text-anchor="middle"><tspan x="1665" dy="0">...</tspan></text>
  </g>
</svg>
