<svg xmlns="http://www.w3.org/2000/svg" width="2580" height="959" viewBox="0 0 2580 959">

  <defs>
    <marker id="arrow-end" viewBox="0 0 10 10" refX="9" refY="5" markerWidth="7" markerHeight="7" orient="auto-start-reverse">
      <path d="M 0 0 L 10 5 L 0 10 z" fill="context-stroke"/>
    </marker>
    <marker id="arrow-start" viewBox="0 0 10 10" refX="1" refY="5" markerWidth="7" markerHeight="7" orient="auto-start-reverse">
      <path d="M 10 0 L 0 5 L 10 10 z" fill="context-stroke"/>
    </marker>
  </defs>

  <style>
    :root {
      --font-sans: "Inter", "Arial", "Helvetica", "Microsoft YaHei", "Noto Sans CJK SC", sans-serif;
      --font-serif: "Georgia", "Times New Roman", "Noto Serif CJK SC", serif;
      --font-hand: "Comic Sans MS", "Comic Neue", "Arial Rounded MT Bold", "Microsoft YaHei", sans-serif;
    }
  </style>
  <rect id="canvas-background" x="0" y="0" width="2580" height="959" fill="#ffffff"/>
  <g id="background">
    <rect id="panel-left-fill" x="6" y="9" width="657" height="948" rx="0" ry="0" fill="#ffffff" stroke="none" stroke-width="0"/>
    <rect id="panel-stage-fill" x="705" y="9" width="1422" height="948" rx="0" ry="0" fill="#ffffff" stroke="none" stroke-width="0"/>
    <rect id="panel-inference-fill" x="2164" y="9" width="409" height="948" rx="0" ry="0" fill="#ffffff" stroke="none" stroke-width="0"/>
    <rect id="header-left-fill" x="6" y="9" width="657" height="90" rx="0" ry="0" fill="#f2f2f2" stroke="none" stroke-width="0"/>
    <rect id="header-stage1-fill" x="705" y="9" width="1422" height="90" rx="0" ry="0" fill="#f2f2f2" stroke="none" stroke-width="0"/>
    <rect id="header-stage2-fill" x="705" y="515" width="1422" height="91" rx="0" ry="0" fill="#f2f2f2" stroke="none" stroke-width="0"/>
    <rect id="header-inference-fill" x="2164" y="9" width="409" height="90" rx="0" ry="0" fill="#f2f2f2" stroke="none" stroke-width="0"/>
    <rect id="left-skill-doc-fill" x="98" y="137" width="473" height="185" rx="0" ry="0" fill="#f8e3d8" stroke="none" stroke-width="0"/>
    <rect id="left-compiler-fill" x="64" y="385" width="546" height="198" rx="28" ry="28" fill="#fbf9fb" stroke="none" stroke-width="0"/>
    <rect id="left-frozen-fill" x="296" y="650" width="305" height="226" rx="16" ry="16" fill="#e9fbff" stroke="none" stroke-width="0"/>
    <path id="stage1-cylinder-fill" d="M740,188 C740,145 1122,145 1122,188 L1122,323 C1122,362 740,362 740,323 Z" fill="#ffffff" stroke="none" stroke-width="0" />
  </g>
  <g id="assets">
    <image id="img-left-network" href="assets/left_network.png" x="82" y="420" width="128" height="122" preserveAspectRatio="xMidYMid meet"/>
    <image id="img-left-frozen-icons" href="assets/left_frozen_icons.png" x="320" y="765" width="230" height="95" preserveAspectRatio="xMidYMid meet"/>
    <image id="img-stage1-skill-corpus" href="assets/stage1_skill_corpus.png" x="742" y="226" width="365" height="112" preserveAspectRatio="xMidYMid meet"/>
    <image id="img-stage1-command" href="assets/stage1_command.png" x="1230" y="174" width="82" height="56" preserveAspectRatio="xMidYMid meet"/>
    <image id="img-stage1-model-logo-a" href="assets/stage1_model_logo_a.png" x="1460" y="164" width="76" height="74" preserveAspectRatio="xMidYMid meet"/>
    <image id="img-stage1-doc-ok-a" href="assets/stage1_doc_ok_a.png" x="1590" y="160" width="78" height="100" preserveAspectRatio="xMidYMid meet"/>
    <image id="img-stage1-prefix" href="assets/stage1_prefix.png" x="1239" y="334" width="82" height="82" preserveAspectRatio="xMidYMid meet"/>
    <image id="img-stage1-model-logo-b" href="assets/stage1_model_logo_b.png" x="1462" y="344" width="76" height="74" preserveAspectRatio="xMidYMid meet"/>
    <image id="img-stage1-doc-ok-b" href="assets/stage1_doc_ok_b.png" x="1596" y="342" width="84" height="101" preserveAspectRatio="xMidYMid meet"/>
    <image id="img-stage2-skill-docs" href="assets/stage2_skill_docs.png" x="742" y="632" width="181" height="92" preserveAspectRatio="xMidYMid meet"/>
    <image id="img-stage2-target" href="assets/stage2_target.png" x="1926" y="632" width="111" height="102" preserveAspectRatio="xMidYMid meet"/>
    <image id="img-composition-sigma" href="assets/composition_sigma.png" x="2320" y="760" width="58" height="86" preserveAspectRatio="xMidYMid meet"/>
  </g>
  <g id="panels">
    <rect id="panel-left-border" x="6" y="9" width="657" height="948" rx="0" ry="0" fill="none" stroke="#111111" stroke-width="4"/>
    <rect id="panel-stage1-border" x="705" y="9" width="1422" height="489" rx="0" ry="0" fill="none" stroke="#111111" stroke-width="4"/>
    <rect id="panel-stage2-border" x="705" y="515" width="1422" height="442" rx="0" ry="0" fill="none" stroke="#111111" stroke-width="4"/>
    <rect id="panel-inference-border" x="2164" y="9" width="409" height="948" rx="0" ry="0" fill="none" stroke="#111111" stroke-width="4"/>
    <line id="header-left-rule" x1="6" y1="99" x2="663" y2="99" stroke="#111111" stroke-width="4" />
    <line id="header-stage1-rule" x1="705" y1="99" x2="2127" y2="99" stroke="#111111" stroke-width="4" />
    <line id="header-stage2-rule-top" x1="705" y1="606" x2="2127" y2="606" stroke="#111111" stroke-width="4" />
    <line id="header-inference-rule" x1="2164" y1="99" x2="2573" y2="99" stroke="#111111" stroke-width="4" />
    <rect id="left-skill-doc-border" x="98" y="137" width="473" height="185" rx="0" ry="0" fill="none" stroke="#8a421d" stroke-width="4"/>
    <rect id="left-compiler-border" x="64" y="385" width="546" height="198" rx="28" ry="28" fill="none" stroke="#64334d" stroke-width="4"/>
    <rect id="left-frozen-border" x="296" y="650" width="305" height="226" rx="16" ry="16" fill="none" stroke="#11aee8" stroke-width="4"/>
    <ellipse id="stage1-cylinder-top" cx="931" cy="188" rx="191" ry="34" fill="#ffffff" stroke="#111111" stroke-width="4"/>
    <path id="stage1-cylinder-sides" d="M740,188 L740,323 C740,362 1122,362 1122,323 L1122,188" fill="none" stroke="#111111" stroke-width="4" />
    <rect id="stage1-upper-dashed" x="1183" y="129" width="545" height="158" rx="0" ry="0" fill="none" stroke="#b95425" stroke-width="4" stroke-dasharray="18 14"/>
    <rect id="stage1-lower-dashed" x="1183" y="315" width="545" height="148" rx="0" ry="0" fill="none" stroke="#b95425" stroke-width="4" stroke-dasharray="18 14"/>
  </g>
  <g id="sections">
    <polygon id="left-skill-doc-fold" points="542,298 570,286 542,322" fill="#f6efe9" stroke="#8a421d" stroke-width="4"/>
    <polygon id="arrow-left-doc-to-compiler" points="300,333 354,333 354,354 379,354 327,381 275,354 300,354" fill="#ffffff" stroke="#111111" stroke-width="4"/>
    <polygon id="arrow-left-compiler-to-lora" points="123,599 176,599 176,625 201,625 150,652 99,625 123,625" fill="#ffffff" stroke="#111111" stroke-width="4"/>
    <polygon id="left-as-token" points="96,666 220,666 198,747 118,747" fill="#ff9238" stroke="none" stroke-width="0"/>
    <polygon id="left-bs-token" points="94,768 224,768 203,853 115,853" fill="#ffc247" stroke="none" stroke-width="0"/>
    <polygon id="arrow-cylinder-to-dashed" points="1130,234 1155,234 1155,209 1182,271 1155,333 1155,304 1130,304" fill="#ffffff" stroke="#111111" stroke-width="4"/>
    <polygon id="stage1-as-token-a" points="1378,159 1434,163 1421,213 1365,207" fill="#ff9238" stroke="none" stroke-width="0"/>
    <polygon id="stage1-bs-token-a" points="1379,208 1436,215 1423,262 1365,255" fill="#ffc247" stroke="none" stroke-width="0"/>
    <polygon id="stage1-as-token-b" points="1379,342 1435,346 1422,395 1365,391" fill="#ff9238" stroke="none" stroke-width="0"/>
    <polygon id="stage1-bs-token-b" points="1379,392 1436,399 1423,446 1365,440" fill="#ffc247" stroke="none" stroke-width="0"/>
    <rect id="stage1-recon-loss" x="1766" y="121" width="305" height="77" rx="10" ry="10" fill="#a94773" stroke="#64334d" stroke-width="4"/>
    <rect id="stage1-completion-loss" x="1769" y="256" width="304" height="76" rx="10" ry="10" fill="#a94773" stroke="#64334d" stroke-width="4"/>
    <rect id="stage1-compiler-box" x="1769" y="359" width="306" height="91" rx="10" ry="10" fill="#ffffff" stroke="#64334d" stroke-width="4"/>
    <polygon id="stage2-arrow-docs-to-compiler" points="1183,648 1210,648 1210,623 1237,681 1210,739 1210,711 1183,711" fill="#ffffff" stroke="#111111" stroke-width="4"/>
    <rect id="stage2-compiler-box" x="1248" y="631" width="362" height="93" rx="12" ry="12" fill="#ffffff" stroke="#64334d" stroke-width="4"/>
    <polygon id="stage2-arrow-teacher-to-compiler" points="1677,648 1649,648 1649,623 1622,681 1649,739 1649,711 1677,711" fill="#ffffff" stroke="#111111" stroke-width="4"/>
    <rect id="stage2-loss-box" x="1916" y="838" width="160" height="78" rx="12" ry="12" fill="#a94773" stroke="#64334d" stroke-width="4"/>
    <rect id="stage2-layer1-box" x="784" y="812" width="158" height="124" rx="0" ry="0" fill="#effcff" stroke="#11aee8" stroke-width="4"/>
    <polygon id="stage2-l1-as" points="977,812 1040,816 1028,875 964,869" fill="#ff9238" stroke="none" stroke-width="0"/>
    <polygon id="stage2-l1-bs" points="982,873 1044,879 1032,938 965,934" fill="#ffc247" stroke="none" stroke-width="0"/>
    <rect id="stage2-layer2-box" x="1155" y="812" width="158" height="124" rx="0" ry="0" fill="#effcff" stroke="#11aee8" stroke-width="4"/>
    <polygon id="stage2-l2-as" points="1350,812 1412,817 1400,875 1336,870" fill="#ff9238" stroke="none" stroke-width="0"/>
    <polygon id="stage2-l2-bs" points="1355,873 1416,879 1403,938 1337,934" fill="#ffc247" stroke="none" stroke-width="0"/>
    <rect id="stage2-layern-box" x="1587" y="812" width="158" height="124" rx="0" ry="0" fill="#effcff" stroke="#11aee8" stroke-width="4"/>
    <polygon id="stage2-ln-as" points="1794,812 1857,816 1845,875 1781,869" fill="#ff9238" stroke="none" stroke-width="0"/>
    <polygon id="stage2-ln-bs" points="1798,873 1860,879 1848,938 1782,934" fill="#ffc247" stroke="none" stroke-width="0"/>
    <polygon id="inject-small-as" points="2211,434 2260,434 2248,478 2199,478" fill="#ff9238" stroke="none" stroke-width="0"/>
    <polygon id="inject-small-bs" points="2211,479 2260,479 2249,523 2198,523" fill="#ffc247" stroke="none" stroke-width="0"/>
    <polygon id="inject-mid-as" points="2302,389 2360,392 2348,450 2290,445" fill="#ff9238" stroke="none" stroke-width="0"/>
    <polygon id="inject-mid-bs" points="2301,452 2360,456 2349,512 2289,508" fill="#ffc247" stroke="none" stroke-width="0"/>
    <polygon id="inject-big-as" points="2413,385 2480,395 2462,457 2398,448" fill="#ff9238" stroke="none" stroke-width="0"/>
    <polygon id="inject-big-bs" points="2412,455 2481,464 2463,527 2398,518" fill="#ffc247" stroke="none" stroke-width="0"/>
    <rect id="injection-slider-knob" x="2291" y="502" width="26" height="45" rx="5" ry="5" fill="#888888" stroke="#555555" stroke-width="4"/>
    <polygon id="comp-left-as" points="2217,668 2266,668 2254,714 2205,714" fill="#ff9238" stroke="none" stroke-width="0"/>
    <polygon id="comp-left-bs" points="2217,715 2266,715 2255,760 2205,760" fill="#ffc247" stroke="none" stroke-width="0"/>
    <polygon id="comp-mid-as" points="2330,668 2396,663 2384,734 2317,740" fill="#5577bb" stroke="none" stroke-width="0" opacity="0.85"/>
    <polygon id="comp-mid-bs" points="2328,734 2395,727 2383,799 2316,806" fill="#a9ecf1" stroke="none" stroke-width="0" opacity="0.85"/>
    <polygon id="comp-right-as" points="2446,668 2509,665 2498,734 2434,739" fill="#b33f78" stroke="none" stroke-width="0" opacity="0.9"/>
    <polygon id="comp-right-bs" points="2445,734 2509,730 2498,799 2433,805" fill="#efa0cc" stroke="none" stroke-width="0" opacity="0.9"/>
    <rect id="composition-m-box" x="2287" y="845" width="129" height="92" rx="0" ry="0" fill="#effcff" stroke="#11aee8" stroke-width="4"/>
  </g>
  <g id="icons">
    <circle id="stage2-layer1-snow" cx="862" cy="899" r="17" fill="#bdeffd" stroke="none" stroke-width="0"/>
    <circle id="stage2-layer2-snow" cx="1232" cy="899" r="17" fill="#bdeffd" stroke="none" stroke-width="0"/>
    <circle id="stage2-layern-snow" cx="1665" cy="899" r="17" fill="#bdeffd" stroke="none" stroke-width="0"/>
    <circle id="semantic-dot-1" cx="2318" cy="187" r="15" fill="#0edfc8" stroke="none" stroke-width="0"/>
    <circle id="semantic-dot-2" cx="2362" cy="203" r="21" fill="#f24b9a" stroke="none" stroke-width="0"/>
    <circle id="semantic-dot-3" cx="2418" cy="181" r="28" fill="#e83b9c" stroke="none" stroke-width="0"/>
    <circle id="semantic-dot-4" cx="2332" cy="262" r="31" fill="#08ddc7" stroke="none" stroke-width="0"/>
    <circle id="semantic-dot-5" cx="2400" cy="244" r="26" fill="#03b6c4" stroke="none" stroke-width="0"/>
    <circle id="composition-snow" cx="2352" cy="914" r="12" fill="#bdeffd" stroke="none" stroke-width="0"/>
  </g>
  <g id="connectors">
    <line id="left-doc-line-1a" x1="167" y1="222" x2="235" y2="222" stroke="#8a421d" stroke-width="4" />
    <line id="left-doc-line-1b" x1="257" y1="222" x2="291" y2="222" stroke="#8a421d" stroke-width="4" />
    <line id="left-doc-line-2a" x1="167" y1="249" x2="235" y2="249" stroke="#8a421d" stroke-width="4" />
    <line id="left-doc-line-2b" x1="257" y1="249" x2="343" y2="249" stroke="#8a421d" stroke-width="4" />
    <line id="left-doc-line-3a" x1="167" y1="282" x2="235" y2="282" stroke="#8a421d" stroke-width="4" />
    <line id="left-doc-line-3b" x1="257" y1="282" x2="343" y2="282" stroke="#8a421d" stroke-width="4" />
    <line id="stage1-command-arrow" x1="1327" y1="200" x2="1360" y2="200" stroke="#c14878" stroke-width="4" marker-end="url(#arrow-end)"/>
    <line id="stage1-logo-arrow-a" x1="1538" y1="200" x2="1582" y2="200" stroke="#c14878" stroke-width="4" marker-end="url(#arrow-end)"/>
    <line id="stage1-prefix-arrow" x1="1328" y1="375" x2="1364" y2="375" stroke="#c14878" stroke-width="4" marker-end="url(#arrow-end)"/>
    <line id="stage1-logo-arrow-b" x1="1538" y1="375" x2="1582" y2="375" stroke="#c14878" stroke-width="4" marker-end="url(#arrow-end)"/>
    <path id="stage1-upper-loss-curve" d="M1728,204 C1744,147 1751,133 1766,165" fill="none" stroke="#64334d" stroke-width="4" stroke-dasharray="14 12" />
    <path id="stage1-lower-loss-curve" d="M1728,397 C1749,329 1752,303 1768,292" fill="none" stroke="#64334d" stroke-width="4" stroke-dasharray="14 12" />
    <line id="stage2-target-loss-arrow" x1="1996" y1="744" x2="1996" y2="808" stroke="#c14878" stroke-width="5" marker-end="url(#arrow-end)"/>
    <path id="stage2-dashed-arc" d="M992,810 C1117,737 1495,722 1768,810" fill="none" stroke="#64334d" stroke-width="4" stroke-dasharray="16 16" />
    <path id="stage2-dashed-to-compiler" d="M1412,766 C1414,733 1410,711 1418,724" fill="none" stroke="#64334d" stroke-width="4" stroke-dasharray="14 14" marker-end="url(#arrow-end)"/>
    <line id="stage2-to-loss" x1="1875" y1="879" x2="1912" y2="879" stroke="#c14878" stroke-width="5" marker-end="url(#arrow-end)"/>
    <line id="semantic-y-axis" x1="2288" y1="304" x2="2288" y2="153" stroke="#064ba5" stroke-width="8" />
    <line id="semantic-x-axis" x1="2283" y1="304" x2="2447" y2="304" stroke="#064ba5" stroke-width="8" />
    <line id="injection-slider" x1="2195" y1="527" x2="2490" y2="527" stroke="#555555" stroke-width="6" marker-end="url(#arrow-end)"/>
    <path id="composition-bracket" d="M2240,765 L2240,794 L2306,794 M2378,794 L2446,794 L2446,765" fill="none" stroke="#111111" stroke-width="4" />
    <line id="composition-down" x1="2349" y1="845" x2="2349" y2="872" stroke="#111111" stroke-width="4" marker-end="url(#arrow-end)"/>
  </g>
  <g id="texts">
    <text id="title-overall" x="333" y="69" font-family="var(--font-serif)" font-size="42" font-weight="700" fill="#111111" text-anchor="middle"><tspan x="333" dy="0">Overall Pipeline</tspan></text>
    <text id="title-stage1" x="1416" y="69" font-family="var(--font-serif)" font-size="42" font-weight="700" fill="#111111" text-anchor="middle"><tspan x="1416" dy="0">Stage 1: Skill Document Pretraining</tspan></text>
    <text id="title-stage2" x="1416" y="574" font-family="var(--font-serif)" font-size="42" font-weight="700" fill="#111111" text-anchor="middle"><tspan x="1416" dy="0">Stage 2: Trajectory-Supervised Fine-Tuning</tspan></text>
    <text id="title-inference" x="2369" y="69" font-family="var(--font-serif)" font-size="40" font-weight="700" fill="#111111" text-anchor="middle"><tspan x="2369" dy="0">Inference Stage</tspan></text>
    <text id="left-skill-doc-label" x="135" y="192" font-family="var(--font-sans)" font-size="34" font-weight="700" fill="#111111" text-anchor="start"><tspan x="135" dy="0">In-Context Textual Skill</tspan></text>
    <g id="left-doc-d" class="math formula" data-latex="D" data-math-hash="50c9e8d5fc" transform="translate(445 223.689) scale(1.7258427)"><title>D</title><path d="M 6.39141 0 L 15.9328 0 Q 23.5336 0 27.4078 3.22031 Q 31.2891 6.44063 31.2891 12.7898 Q 31.2891 16.9875 29.8125 20.8687 Q 28.343 24.743 25.7484 27.4008 Q 23.1398 30.1289 19.118 31.4719 Q 15.0961 32.8078 9.60469 32.8078 L 0 32.8078 L 6.39141 0 Z M 10.132 3.64922 L 5.18203 29.1586 L 10.9828 29.1586 Q 18.4359 29.1586 22.5211 24.8766 Q 26.6062 20.5875 26.6062 12.7898 Q 26.6062 8.06484 23.9695 5.85703 Q 21.3328 3.64922 15.7078 3.64922 L 10.132 3.64922 Z" fill="#111111"/></g>
    <text id="left-compiler-label" x="226" y="452" font-family="var(--font-serif)" font-size="44" font-weight="700" fill="#111111" text-anchor="start"><tspan x="226" dy="0">Skill Compiler</tspan></text>
    <g id="left-compiler-gphi" class="math formula" data-latex="G_{\phi}" data-math-hash="c88e2a581f" transform="translate(541.399 422) scale(1.1770889)"><title>G_{\phi}</title><path d="M 21.0394 26.5978 L 22.6406 18.5784 L 15.8287 18.5784 L 16.4653 15.1725 L 27.3328 15.1725 L 24.6881 28.6519 Q 21.9581 30.1481 18.7359 30.9619 Q 15.5203 31.7691 12.2587 31.7691 Q 6.49688 31.7691 3.24844 28.5731 Q 0 25.3706 0 19.6678 Q 0 14.9297 1.97531 10.6575 Q 3.95719 6.37875 7.44188 3.52406 Q 9.63375 1.74563 12.2391 0.872813 Q 14.8444 0 18.0206 0 Q 20.895 0 23.5266 0.728438 Q 26.1647 1.45688 28.5666 2.91375 L 27.7266 7.32375 Q 25.8759 5.39438 23.3953 4.37719 Q 20.9147 3.36 18.1059 3.36 Q 14.8444 3.36 12.3637 4.60688 Q 9.88312 5.84719 7.93406 8.44594 Q 6.27375 10.6641 5.31562 13.6697 Q 4.36406 16.6753 4.36406 19.7925 Q 4.36406 24.0778 6.55594 26.2434 Q 8.75437 28.4025 13.0987 28.4025 Q 15.2775 28.4025 17.3053 27.9431 Q 19.3331 27.4772 21.0394 26.5978 Z M 44.3958 15.7231 L 43.2336 21.6536 Q 46.1047 21.6536 47.5793 23.8494 Q 49.1044 26.0912 48.3418 30.0372 Q 47.5655 33.9832 45.1676 36.225 Q 42.8431 38.4208 39.972 38.4208 L 38.8511 44.1768 L 36.2281 44.1768 L 37.3444 38.4208 Q 34.4871 38.4208 32.9941 36.225 Q 31.4736 33.9832 32.2499 30.0372 Q 33.0125 26.0912 35.4058 23.8494 Q 37.7486 21.6536 40.606 21.6536 L 41.7682 15.7231 L 44.3958 15.7231 Z M 40.4314 36.0688 Q 42.053 36.0688 43.4449 34.5896 Q 44.97 32.9359 45.558 30.0372 Q 46.1322 27.1661 45.2135 25.4848 Q 44.3958 24.0102 42.7742 24.0102 L 40.4314 36.0688 Z M 37.8038 36.0688 L 40.1466 24.0102 Q 38.5388 24.0102 37.1469 25.4848 Q 35.5804 27.1661 35.0337 30.0372 Q 34.4871 32.9359 35.3783 34.5896 Q 36.1822 36.0688 37.8038 36.0688 Z" fill="#111111"/></g>
    <text id="left-compiler-based" x="226" y="507" font-family="var(--font-sans)" font-size="34" font-weight="700" fill="#64334d" text-anchor="start"><tspan x="226" dy="0">Based</tspan></text>
    <text id="left-compiler-on" x="347" y="507" font-family="var(--font-sans)" font-size="34" font-weight="700" fill="#64334d" text-anchor="start"><tspan x="347" dy="0">on</tspan></text>
    <text id="left-compiler-hyper" x="226" y="552" font-family="var(--font-sans)" font-size="34" font-weight="700" fill="#64334d" text-anchor="start"><tspan x="226" dy="0">Hyper-network</tspan></text>
    <g id="left-as-label" class="math formula" data-latex="A_s" data-math-hash="953162bf1f" transform="translate(117.062 680) scale(1.5687089)"><title>A_s</title><path d="M 20.2275 0 L 25.5975 0 L 32.0925 34.995 L 27.1425 34.995 L 25.6875 26.0175 L 9.9375 26.0175 L 4.995 34.995 L 0 34.995 L 20.2275 0 Z M 21.9375 4.665 L 12.12 22.08 L 24.9675 22.08 L 21.9375 4.665 Z M 52.1934 25.0358 L 51.6212 27.8918 Q 50.4242 27.2355 49.0907 26.91 Q 47.7624 26.5793 46.3554 26.5793 Q 43.9719 26.5793 42.6017 27.393 Q 41.2367 28.2015 41.2367 29.598 Q 41.2367 31.2203 44.4182 32.0917 Q 44.6649 32.1547 44.7804 32.1915 L 45.7464 32.4855 Q 48.7652 33.3203 49.7732 34.239 Q 50.7812 35.1578 50.7812 36.7485 Q 50.7812 39.6728 48.4607 41.5102 Q 46.1402 43.3477 42.3812 43.3477 Q 40.9217 43.3477 39.3152 43.0643 Q 37.7087 42.786 35.7714 42.198 L 36.3594 39.0795 Q 38.0184 39.9352 39.6249 40.3762 Q 41.2367 40.8173 42.7119 40.8173 Q 44.9274 40.8173 46.3134 39.867 Q 47.6994 38.9168 47.6994 37.4573 Q 47.6994 35.8822 44.0559 34.911 L 43.7462 34.8323 L 42.7119 34.5697 Q 40.4124 33.9607 39.3467 32.9685 Q 38.2809 31.9763 38.2809 30.4327 Q 38.2809 27.498 40.4859 25.776 Q 42.6962 24.054 46.4867 24.054 Q 47.9777 24.054 49.3952 24.3008 Q 50.8179 24.5423 52.1934 25.0358 Z" fill="#111111"/></g>
    <g id="left-bs-label" class="math formula" data-latex="B_s" data-math-hash="9a0cc9f062" transform="translate(121.006 784) scale(1.5687089)"><title>B_s</title><path d="M 6.8175 0 L 18.915 0 Q 23.835 0 26.2725 1.83 Q 28.71 3.66 28.71 7.335 Q 28.71 10.71 26.61 13.1625 Q 24.5175 15.615 21.12 16.125 Q 24.0225 16.785 25.4775 18.6375 Q 26.9325 20.49 26.9325 23.58 Q 26.9325 28.8525 23.025 31.9275 Q 19.125 34.995 12.3525 34.995 L 0 34.995 L 6.8175 0 Z M 7.965 18.285 L 5.4825 31.1025 L 13.1025 31.1025 Q 17.3925 31.1025 19.71 29.1375 Q 22.0275 27.165 22.0275 23.58 Q 22.0275 20.8125 20.49 19.5525 Q 18.96 18.285 15.5625 18.285 L 7.965 18.285 Z M 10.755 3.8925 L 8.6925 14.4375 L 15.75 14.4375 Q 19.5225 14.4375 21.645 12.8025 Q 23.7675 11.16 23.7675 8.25 Q 23.7675 5.9775 22.335 4.935 Q 20.9025 3.8925 17.7675 3.8925 L 10.755 3.8925 Z M 48.4397 25.0358 L 47.8674 27.8918 Q 46.6704 27.2355 45.3369 26.91 Q 44.0087 26.5793 42.6017 26.5793 Q 40.2182 26.5793 38.8479 27.393 Q 37.4829 28.2015 37.4829 29.598 Q 37.4829 31.2203 40.6644 32.0917 Q 40.9112 32.1547 41.0267 32.1915 L 41.9927 32.4855 Q 45.0114 33.3203 46.0194 34.239 Q 47.0274 35.1578 47.0274 36.7485 Q 47.0274 39.6728 44.7069 41.5102 Q 42.3864 43.3477 38.6274 43.3477 Q 37.1679 43.3477 35.5614 43.0643 Q 33.9549 42.786 32.0177 42.198 L 32.6057 39.0795 Q 34.2647 39.9352 35.8712 40.3762 Q 37.4829 40.8173 38.9582 40.8173 Q 41.1737 40.8173 42.5597 39.867 Q 43.9457 38.9168 43.9457 37.4573 Q 43.9457 35.8822 40.3022 34.911 L 39.9924 34.8323 L 38.9582 34.5697 Q 36.6587 33.9607 35.5929 32.9685 Q 34.5272 31.9763 34.5272 30.4327 Q 34.5272 27.498 36.7322 25.776 Q 38.9424 24.054 42.7329 24.054 Q 44.2239 24.054 45.6414 24.3008 Q 47.0642 24.5423 48.4397 25.0358 Z" fill="#111111"/></g>
    <text id="left-plus-lora" x="253" y="771" font-family="var(--font-sans)" font-size="66" font-weight="700" fill="#111111" text-anchor="middle"><tspan x="253" dy="0">+</tspan></text>
    <text id="left-frozen-label" x="335" y="701" font-family="var(--font-sans)" font-size="38" font-weight="700" fill="#111111" text-anchor="start"><tspan x="335" dy="0">Frozen LLM</tspan></text>
    <g id="left-frozen-mtheta" class="math formula" data-latex="M_{\theta}" data-math-hash="ac2f4eb700" transform="translate(409.194 724) scale(1.6505877)"><title>M_{\theta}</title><path d="M 5.53922 0 L 11.31 0 L 14.625 19.1588 L 25.6303 0 L 31.5534 0 L 26.0142 28.4334 L 22.2788 28.4334 L 27.1172 3.50391 L 15.9595 22.9673 L 12.2058 22.9673 L 8.58609 3.43078 L 3.75375 28.4334 L 0 28.4334 L 5.53922 0 Z M 45.0266 25.3665 L 36.5465 25.3665 Q 35.9749 29.3548 36.5593 31.044 Q 37.293 33.1256 39.2808 33.1256 Q 41.2771 33.1256 42.7999 31.0312 Q 44.1308 29.1927 45.0266 25.3665 Z M 45.4361 23.1014 Q 45.7986 19.3135 45.3294 17.9827 Q 44.6 15.8754 42.6378 15.8754 Q 40.5988 15.8754 39.1059 17.9571 Q 37.9328 19.6335 37.0115 23.1014 L 45.4361 23.1014 Z M 43.026 13.8749 Q 46.2252 13.8749 47.5049 16.703 Q 48.7846 19.514 47.812 24.5005 Q 46.8523 29.4743 44.4635 32.2981 Q 42.0918 35.139 38.8926 35.139 Q 35.6806 35.139 34.4137 32.2981 Q 33.1468 29.4743 34.1066 24.5005 Q 35.0791 19.514 37.438 16.703 Q 39.814 13.8749 43.026 13.8749 Z" fill="#111111"/></g>
    <text id="left-caption-lora" x="54" y="916" font-family="var(--font-sans)" font-size="34" font-weight="700" fill="#111111" text-anchor="start"><tspan x="54" dy="0">LoRA as In-Weight Latent</tspan></text>
    <text id="left-caption-skill" x="545" y="916" font-family="var(--font-sans)" font-size="34" font-weight="700" fill="#111111" text-anchor="start"><tspan x="545" dy="0">Skill</tspan></text>
    <text id="stage1-corpus-line1a" x="785" y="409" font-family="var(--font-sans)" font-size="32" font-weight="700" fill="#111111" text-anchor="start"><tspan x="785" dy="0">Open-Source</tspan></text>
    <text id="stage1-corpus-line1b" x="1002" y="409" font-family="var(--font-sans)" font-size="32" font-weight="700" fill="#111111" text-anchor="start"><tspan x="1002" dy="0">Skills</tspan></text>
    <text id="stage1-corpus-line2" x="745" y="449" font-family="var(--font-sans)" font-size="31" font-weight="700" fill="#111111" text-anchor="start"><tspan x="745" dy="0">171K Pretraining Samples</tspan></text>
    <text id="stage1-corpus-line3" x="830" y="485" font-family="var(--font-sans)" font-size="31" font-weight="700" fill="#111111" text-anchor="start"><tspan x="830" dy="0">300M Tokens</tspan></text>
    <text id="stage1-command-label" x="1215" y="268" font-family="var(--font-sans)" font-size="26" font-weight="700" fill="#111111" text-anchor="start"><tspan x="1215" dy="0">command</tspan></text>
    <g id="stage1-as-a" class="math formula" data-latex="A_s" data-math-hash="953162bf1f" transform="translate(1373.51 164) scale(1.9488901)"><title>A_s</title><path d="M 10.5352 0 L 13.332 0 L 16.7148 18.2266 L 14.1367 18.2266 L 13.3789 13.5508 L 5.17578 13.5508 L 2.60156 18.2266 L 0 18.2266 L 10.5352 0 Z M 11.4258 2.42969 L 6.3125 11.5 L 13.0039 11.5 L 11.4258 2.42969 Z M 27.1841 13.0395 L 26.886 14.527 Q 26.2626 14.1852 25.5681 14.0156 Q 24.8763 13.8434 24.1435 13.8434 Q 22.9021 13.8434 22.1884 14.2672 Q 21.4774 14.6883 21.4774 15.4156 Q 21.4774 16.2605 23.1345 16.7145 Q 23.263 16.7473 23.3231 16.7664 L 23.8263 16.9195 Q 25.3985 17.3543 25.9235 17.8328 Q 26.4485 18.3113 26.4485 19.1398 Q 26.4485 20.6629 25.2399 21.6199 Q 24.0313 22.577 22.0735 22.577 Q 21.3134 22.577 20.4767 22.4293 Q 19.6399 22.2844 18.631 21.9781 L 18.9372 20.3539 Q 19.8013 20.7996 20.638 21.0293 Q 21.4774 21.259 22.2458 21.259 Q 23.3997 21.259 24.1216 20.7641 Q 24.8435 20.2691 24.8435 19.509 Q 24.8435 18.6887 22.9458 18.1828 L 22.7845 18.1418 L 22.2458 18.0051 Q 21.0481 17.6879 20.4931 17.1711 Q 19.938 16.6543 19.938 15.8504 Q 19.938 14.3219 21.0864 13.425 Q 22.2376 12.5281 24.2118 12.5281 Q 24.9884 12.5281 25.7267 12.6566 Q 26.4677 12.7824 27.1841 13.0395 Z" fill="#111111"/></g>
    <g id="stage1-bs-a" class="math formula" data-latex="B_s" data-math-hash="9a0cc9f062" transform="translate(1375.42 208) scale(1.9488901)"><title>B_s</title><path d="M 3.55078 0 L 9.85156 0 Q 12.4141 0 13.6836 0.953125 Q 14.9531 1.90625 14.9531 3.82031 Q 14.9531 5.57812 13.8594 6.85547 Q 12.7695 8.13281 11 8.39844 Q 12.5117 8.74219 13.2695 9.70703 Q 14.0273 10.6719 14.0273 12.2812 Q 14.0273 15.0273 11.9922 16.6289 Q 9.96094 18.2266 6.43359 18.2266 L 0 18.2266 L 3.55078 0 Z M 4.14844 9.52344 L 2.85547 16.1992 L 6.82422 16.1992 Q 9.05859 16.1992 10.2656 15.1758 Q 11.4727 14.1484 11.4727 12.2812 Q 11.4727 10.8398 10.6719 10.1836 Q 9.875 9.52344 8.10547 9.52344 L 4.14844 9.52344 Z M 5.60156 2.02734 L 4.52734 7.51953 L 8.20312 7.51953 Q 10.168 7.51953 11.2734 6.66797 Q 12.3789 5.8125 12.3789 4.29688 Q 12.3789 3.11328 11.6328 2.57031 Q 10.8867 2.02734 9.25391 2.02734 L 5.60156 2.02734 Z M 25.229 13.0395 L 24.931 14.527 Q 24.3075 14.1852 23.613 14.0156 Q 22.9212 13.8434 22.1884 13.8434 Q 20.947 13.8434 20.2333 14.2672 Q 19.5224 14.6883 19.5224 15.4156 Q 19.5224 16.2605 21.1794 16.7145 Q 21.3079 16.7473 21.3681 16.7664 L 21.8712 16.9195 Q 23.4435 17.3543 23.9685 17.8328 Q 24.4935 18.3113 24.4935 19.1398 Q 24.4935 20.6629 23.2849 21.6199 Q 22.0763 22.577 20.1185 22.577 Q 19.3583 22.577 18.5216 22.4293 Q 17.6849 22.2844 16.6759 21.9781 L 16.9821 20.3539 Q 17.8462 20.7996 18.6829 21.0293 Q 19.5224 21.259 20.2907 21.259 Q 21.4446 21.259 22.1665 20.7641 Q 22.8884 20.2691 22.8884 19.509 Q 22.8884 18.6887 20.9907 18.1828 L 20.8294 18.1418 L 20.2907 18.0051 Q 19.0931 17.6879 18.538 17.1711 Q 17.9829 16.6543 17.9829 15.8504 Q 17.9829 14.3219 19.1313 13.425 Q 20.2825 12.5281 22.2567 12.5281 Q 23.0333 12.5281 23.7716 12.6566 Q 24.5126 12.7824 25.229 13.0395 Z" fill="#111111"/></g>
    <text id="stage1-plus-a" x="1449" y="213" font-family="var(--font-sans)" font-size="40" font-weight="700" fill="#111111" text-anchor="middle"><tspan x="1449" dy="0">+</tspan></text>
    <text id="stage1-prefix-label" x="1238" y="455" font-family="var(--font-sans)" font-size="27" font-weight="700" fill="#111111" text-anchor="start"><tspan x="1238" dy="0">prefix</tspan></text>
    <g id="stage1-as-b" class="math formula" data-latex="A_s" data-math-hash="953162bf1f" transform="translate(1373.51 346) scale(1.9488901)"><title>A_s</title><path d="M 10.5352 0 L 13.332 0 L 16.7148 18.2266 L 14.1367 18.2266 L 13.3789 13.5508 L 5.17578 13.5508 L 2.60156 18.2266 L 0 18.2266 L 10.5352 0 Z M 11.4258 2.42969 L 6.3125 11.5 L 13.0039 11.5 L 11.4258 2.42969 Z M 27.1841 13.0395 L 26.886 14.527 Q 26.2626 14.1852 25.5681 14.0156 Q 24.8763 13.8434 24.1435 13.8434 Q 22.9021 13.8434 22.1884 14.2672 Q 21.4774 14.6883 21.4774 15.4156 Q 21.4774 16.2605 23.1345 16.7145 Q 23.263 16.7473 23.3231 16.7664 L 23.8263 16.9195 Q 25.3985 17.3543 25.9235 17.8328 Q 26.4485 18.3113 26.4485 19.1398 Q 26.4485 20.6629 25.2399 21.6199 Q 24.0313 22.577 22.0735 22.577 Q 21.3134 22.577 20.4767 22.4293 Q 19.6399 22.2844 18.631 21.9781 L 18.9372 20.3539 Q 19.8013 20.7996 20.638 21.0293 Q 21.4774 21.259 22.2458 21.259 Q 23.3997 21.259 24.1216 20.7641 Q 24.8435 20.2691 24.8435 19.509 Q 24.8435 18.6887 22.9458 18.1828 L 22.7845 18.1418 L 22.2458 18.0051 Q 21.0481 17.6879 20.4931 17.1711 Q 19.938 16.6543 19.938 15.8504 Q 19.938 14.3219 21.0864 13.425 Q 22.2376 12.5281 24.2118 12.5281 Q 24.9884 12.5281 25.7267 12.6566 Q 26.4677 12.7824 27.1841 13.0395 Z" fill="#111111"/></g>
    <g id="stage1-bs-b" class="math formula" data-latex="B_s" data-math-hash="9a0cc9f062" transform="translate(1375.42 392) scale(1.9488901)"><title>B_s</title><path d="M 3.55078 0 L 9.85156 0 Q 12.4141 0 13.6836 0.953125 Q 14.9531 1.90625 14.9531 3.82031 Q 14.9531 5.57812 13.8594 6.85547 Q 12.7695 8.13281 11 8.39844 Q 12.5117 8.74219 13.2695 9.70703 Q 14.0273 10.6719 14.0273 12.2812 Q 14.0273 15.0273 11.9922 16.6289 Q 9.96094 18.2266 6.43359 18.2266 L 0 18.2266 L 3.55078 0 Z M 4.14844 9.52344 L 2.85547 16.1992 L 6.82422 16.1992 Q 9.05859 16.1992 10.2656 15.1758 Q 11.4727 14.1484 11.4727 12.2812 Q 11.4727 10.8398 10.6719 10.1836 Q 9.875 9.52344 8.10547 9.52344 L 4.14844 9.52344 Z M 5.60156 2.02734 L 4.52734 7.51953 L 8.20312 7.51953 Q 10.168 7.51953 11.2734 6.66797 Q 12.3789 5.8125 12.3789 4.29688 Q 12.3789 3.11328 11.6328 2.57031 Q 10.8867 2.02734 9.25391 2.02734 L 5.60156 2.02734 Z M 25.229 13.0395 L 24.931 14.527 Q 24.3075 14.1852 23.613 14.0156 Q 22.9212 13.8434 22.1884 13.8434 Q 20.947 13.8434 20.2333 14.2672 Q 19.5224 14.6883 19.5224 15.4156 Q 19.5224 16.2605 21.1794 16.7145 Q 21.3079 16.7473 21.3681 16.7664 L 21.8712 16.9195 Q 23.4435 17.3543 23.9685 17.8328 Q 24.4935 18.3113 24.4935 19.1398 Q 24.4935 20.6629 23.2849 21.6199 Q 22.0763 22.577 20.1185 22.577 Q 19.3583 22.577 18.5216 22.4293 Q 17.6849 22.2844 16.6759 21.9781 L 16.9821 20.3539 Q 17.8462 20.7996 18.6829 21.0293 Q 19.5224 21.259 20.2907 21.259 Q 21.4446 21.259 22.1665 20.7641 Q 22.8884 20.2691 22.8884 19.509 Q 22.8884 18.6887 20.9907 18.1828 L 20.8294 18.1418 L 20.2907 18.0051 Q 19.0931 17.6879 18.538 17.1711 Q 17.9829 16.6543 17.9829 15.8504 Q 17.9829 14.3219 19.1313 13.425 Q 20.2825 12.5281 22.2567 12.5281 Q 23.0333 12.5281 23.7716 12.6566 Q 24.5126 12.7824 25.229 13.0395 Z" fill="#111111"/></g>
    <text id="stage1-plus-b" x="1449" y="396" font-family="var(--font-sans)" font-size="40" font-weight="700" fill="#111111" text-anchor="middle"><tspan x="1449" dy="0">+</tspan></text>
    <text id="stage1-recon-loss-text" x="1919" y="154" font-family="var(--font-sans)" font-size="30" font-weight="700" fill="#ffffff" text-anchor="middle"><tspan x="1919" dy="0">Reconstruction</tspan><tspan x="1919" dy="37.5">Loss</tspan></text>
    <text id="stage1-loss-plus" x="1919" y="241" font-family="var(--font-sans)" font-size="58" font-weight="700" fill="#111111" text-anchor="middle"><tspan x="1919" dy="0">+</tspan></text>
    <text id="stage1-completion-loss-text" x="1921" y="291" font-family="var(--font-sans)" font-size="30" font-weight="700" fill="#ffffff" text-anchor="middle"><tspan x="1921" dy="0">Completion</tspan><tspan x="1921" dy="37.5">Loss</tspan></text>
    <text id="stage1-compiler-text" x="1790" y="417" font-family="var(--font-serif)" font-size="31" font-weight="700" fill="#111111" text-anchor="start"><tspan x="1790" dy="0">Skill Compiler</tspan></text>
    <g id="stage1-compiler-gphi" class="math formula" data-latex="G_{\phi}" data-math-hash="c88e2a581f" transform="translate(2031.1 398) scale(1.2457785)"><title>G_{\phi}</title><path d="M 14.5272 18.3652 L 15.6328 12.828 L 10.9294 12.828 L 11.3689 10.4763 L 18.8727 10.4763 L 17.0466 19.7834 Q 15.1616 20.8166 12.9367 21.3784 Q 10.7164 21.9358 8.46438 21.9358 Q 4.48594 21.9358 2.24297 19.7291 Q 0 17.5178 0 13.5802 Q 0 10.3086 1.36391 7.35875 Q 2.73234 4.40438 5.13844 2.43328 Q 6.65187 1.20531 8.45078 0.602656 Q 10.2497 0 12.4428 0 Q 14.4275 0 16.2445 0.502969 Q 18.0661 1.00594 19.7245 2.01187 L 19.1445 5.05688 Q 17.8667 3.72469 16.1539 3.02234 Q 14.4411 2.32 12.5017 2.32 Q 10.2497 2.32 8.53688 3.18094 Q 6.82406 4.03734 5.47828 5.83172 Q 4.33188 7.36328 3.67031 9.43859 Q 3.01328 11.5139 3.01328 13.6662 Q 3.01328 16.6252 4.52672 18.1205 Q 6.04469 19.6112 9.04437 19.6112 Q 10.5488 19.6112 11.9489 19.2941 Q 13.3491 18.9723 14.5272 18.3652 Z M 30.6542 10.8564 L 29.8518 14.9513 Q 31.8342 14.9513 32.8524 16.4675 Q 33.9054 18.0153 33.3789 20.74 Q 32.8428 23.4646 31.1871 25.0125 Q 29.5822 26.5287 27.5997 26.5287 L 26.8258 30.503 L 25.0147 30.503 L 25.7854 26.5287 Q 23.8125 26.5287 22.7817 25.0125 Q 21.7318 23.4646 22.2678 20.74 Q 22.7943 18.0153 24.4469 16.4675 Q 26.0645 14.9513 28.0374 14.9513 L 28.8399 10.8564 L 30.6542 10.8564 Z M 27.9169 24.9047 Q 29.0366 24.9047 29.9977 23.8833 Q 31.0507 22.7414 31.4567 20.74 Q 31.8532 18.7576 31.2188 17.5967 Q 30.6542 16.5785 29.5346 16.5785 L 27.9169 24.9047 Z M 26.1026 24.9047 L 27.7203 16.5785 Q 26.6101 16.5785 25.649 17.5967 Q 24.5674 18.7576 24.19 20.74 Q 23.8125 22.7414 24.4279 23.8833 Q 24.9829 24.9047 26.1026 24.9047 Z" fill="#111111"/></g>
    <text id="stage2-task-oriented" x="970" y="679" font-family="var(--font-sans)" font-size="27" font-weight="700" fill="#111111" text-anchor="start"><tspan x="970" dy="0">Task-Oriented</tspan></text>
    <text id="stage2-textual-skills" x="973" y="709" font-family="var(--font-sans)" font-size="27" font-weight="700" fill="#111111" text-anchor="start"><tspan x="973" dy="0">Textual Skills</tspan></text>
    <text id="stage2-compiler-text" x="1280" y="690" font-family="var(--font-serif)" font-size="32" font-weight="700" fill="#111111" text-anchor="start"><tspan x="1280" dy="0">Skill Compiler</tspan></text>
    <g id="stage2-compiler-gphi" class="math formula" data-latex="G_{\phi}" data-math-hash="c88e2a581f" transform="translate(1530.9 668) scale(1.2880799)"><title>G_{\phi}</title><path d="M 15.5291 19.6317 L 16.7109 13.7127 L 11.6831 13.7127 L 12.153 11.1988 L 20.1742 11.1988 L 18.2222 21.1478 Q 16.2072 22.2522 13.8289 22.8528 Q 11.4555 23.4486 9.04813 23.4486 Q 4.79531 23.4486 2.39766 21.0897 Q 0 18.7259 0 14.5167 Q 0 11.0195 1.45797 7.86625 Q 2.92078 4.70812 5.49281 2.60109 Q 7.11063 1.28844 9.03359 0.644219 Q 10.9566 0 13.3009 0 Q 15.4225 0 17.3648 0.537656 Q 19.312 1.07531 21.0848 2.15063 L 20.4648 5.40563 Q 19.0989 3.98156 17.268 3.23078 Q 15.437 2.48 13.3639 2.48 Q 10.9566 2.48 9.12563 3.40031 Q 7.29469 4.31578 5.85609 6.23391 Q 4.63063 7.87109 3.92344 10.0895 Q 3.22109 12.308 3.22109 14.6088 Q 3.22109 17.7717 4.83891 19.3702 Q 6.46156 20.9638 9.66812 20.9638 Q 11.2763 20.9638 12.773 20.6247 Q 14.2697 20.2808 15.5291 19.6317 Z M 32.7683 11.6051 L 31.9105 15.9824 Q 34.0296 15.9824 35.118 17.6032 Q 36.2437 19.2578 35.6809 22.1703 Q 35.1079 25.0829 33.338 26.7375 Q 31.6223 28.3582 29.5032 28.3582 L 28.6758 32.6067 L 26.7398 32.6067 L 27.5637 28.3582 Q 25.4548 28.3582 24.3528 26.7375 Q 23.2305 25.0829 23.8035 22.1703 Q 24.3664 19.2578 26.1329 17.6032 Q 27.8621 15.9824 29.9711 15.9824 L 30.8289 11.6051 L 32.7683 11.6051 Z M 29.8422 26.6222 Q 31.0391 26.6222 32.0665 25.5304 Q 33.1922 24.3098 33.6262 22.1703 Q 34.05 20.0512 33.3719 18.8102 Q 32.7683 17.7218 31.5714 17.7218 L 29.8422 26.6222 Z M 27.9028 26.6222 L 29.632 17.7218 Q 28.4453 17.7218 27.4179 18.8102 Q 26.2617 20.0512 25.8582 22.1703 Q 25.4548 24.3098 26.1125 25.5304 Q 26.7059 26.6222 27.9028 26.6222 Z" fill="#111111"/></g>
    <text id="stage2-teacher-text" x="1691" y="698" font-family="var(--font-sans)" font-size="28" font-weight="700" fill="#111111" text-anchor="start"><tspan x="1691" dy="0">Teacher Trajectory</tspan></text>
    <text id="stage2-loss-text" x="1996" y="888" font-family="var(--font-sans)" font-size="31" font-weight="700" fill="#ffffff" text-anchor="middle"><tspan x="1996" dy="0">Loss</tspan></text>
    <text id="stage2-layer1-label" x="811" y="804" font-family="var(--font-sans)" font-size="29" font-weight="700" fill="#777777" text-anchor="start"><tspan x="811" dy="0">Layer 1</tspan></text>
    <g id="stage2-layer1-mtheta" class="math formula" data-latex="M_{\theta}" data-math-hash="ac2f4eb700" transform="translate(823.567 838) scale(1.7264768)"><title>M_{\theta}</title><path d="M 5.11312 0 L 10.44 0 L 13.5 17.685 L 23.6587 0 L 29.1262 0 L 24.0131 26.2462 L 20.565 26.2462 L 25.0312 3.23438 L 14.7319 21.2006 L 11.2669 21.2006 L 7.92562 3.16687 L 3.465 26.2462 L 0 26.2462 L 5.11312 0 Z M 41.563 23.4152 L 33.7352 23.4152 Q 33.2076 27.0967 33.747 28.656 Q 34.4243 30.5775 36.2592 30.5775 Q 38.1019 30.5775 39.5076 28.6442 Q 40.7361 26.9471 41.563 23.4152 Z M 41.941 21.3244 Q 42.2757 17.8279 41.8425 16.5994 Q 41.1692 14.6542 39.358 14.6542 Q 37.4759 14.6542 36.0977 16.5757 Q 35.0149 18.1232 34.1644 21.3244 L 41.941 21.3244 Z M 39.7163 12.8076 Q 42.6694 12.8076 43.8507 15.4181 Q 45.0319 18.0129 44.1342 22.6159 Q 43.2482 27.207 41.0432 29.8136 Q 38.854 32.436 35.9009 32.436 Q 32.9359 32.436 31.7665 29.8136 Q 30.597 27.207 31.483 22.6159 Q 32.3807 18.0129 34.5582 15.4181 Q 36.7514 12.8076 39.7163 12.8076 Z" fill="#111111"/></g>
    <text id="stage2-plus-l1" x="967" y="884" font-family="var(--font-sans)" font-size="24" font-weight="700" fill="#111111" text-anchor="middle"><tspan x="967" dy="0">+</tspan></text>
    <g id="stage2-l1-as-text" class="math formula" data-latex="A_s" data-math-hash="953162bf1f" transform="translate(979.919 831) scale(1.7717183)"><title>A_s</title><path d="M 10.5352 0 L 13.332 0 L 16.7148 18.2266 L 14.1367 18.2266 L 13.3789 13.5508 L 5.17578 13.5508 L 2.60156 18.2266 L 0 18.2266 L 10.5352 0 Z M 11.4258 2.42969 L 6.3125 11.5 L 13.0039 11.5 L 11.4258 2.42969 Z M 27.1841 13.0395 L 26.886 14.527 Q 26.2626 14.1852 25.5681 14.0156 Q 24.8763 13.8434 24.1435 13.8434 Q 22.9021 13.8434 22.1884 14.2672 Q 21.4774 14.6883 21.4774 15.4156 Q 21.4774 16.2605 23.1345 16.7145 Q 23.263 16.7473 23.3231 16.7664 L 23.8263 16.9195 Q 25.3985 17.3543 25.9235 17.8328 Q 26.4485 18.3113 26.4485 19.1398 Q 26.4485 20.6629 25.2399 21.6199 Q 24.0313 22.577 22.0735 22.577 Q 21.3134 22.577 20.4767 22.4293 Q 19.6399 22.2844 18.631 21.9781 L 18.9372 20.3539 Q 19.8013 20.7996 20.638 21.0293 Q 21.4774 21.259 22.2458 21.259 Q 23.3997 21.259 24.1216 20.7641 Q 24.8435 20.2691 24.8435 19.509 Q 24.8435 18.6887 22.9458 18.1828 L 22.7845 18.1418 L 22.2458 18.0051 Q 21.0481 17.6879 20.4931 17.1711 Q 19.938 16.6543 19.938 15.8504 Q 19.938 14.3219 21.0864 13.425 Q 22.2376 12.5281 24.2118 12.5281 Q 24.9884 12.5281 25.7267 12.6566 Q 26.4677 12.7824 27.1841 13.0395 Z" fill="#111111"/></g>
    <g id="stage2-l1-bs-text" class="math formula" data-latex="B_s" data-math-hash="9a0cc9f062" transform="translate(984.651 894) scale(1.7717183)"><title>B_s</title><path d="M 3.55078 0 L 9.85156 0 Q 12.4141 0 13.6836 0.953125 Q 14.9531 1.90625 14.9531 3.82031 Q 14.9531 5.57812 13.8594 6.85547 Q 12.7695 8.13281 11 8.39844 Q 12.5117 8.74219 13.2695 9.70703 Q 14.0273 10.6719 14.0273 12.2812 Q 14.0273 15.0273 11.9922 16.6289 Q 9.96094 18.2266 6.43359 18.2266 L 0 18.2266 L 3.55078 0 Z M 4.14844 9.52344 L 2.85547 16.1992 L 6.82422 16.1992 Q 9.05859 16.1992 10.2656 15.1758 Q 11.4727 14.1484 11.4727 12.2812 Q 11.4727 10.8398 10.6719 10.1836 Q 9.875 9.52344 8.10547 9.52344 L 4.14844 9.52344 Z M 5.60156 2.02734 L 4.52734 7.51953 L 8.20312 7.51953 Q 10.168 7.51953 11.2734 6.66797 Q 12.3789 5.8125 12.3789 4.29688 Q 12.3789 3.11328 11.6328 2.57031 Q 10.8867 2.02734 9.25391 2.02734 L 5.60156 2.02734 Z M 25.229 13.0395 L 24.931 14.527 Q 24.3075 14.1852 23.613 14.0156 Q 22.9212 13.8434 22.1884 13.8434 Q 20.947 13.8434 20.2333 14.2672 Q 19.5224 14.6883 19.5224 15.4156 Q 19.5224 16.2605 21.1794 16.7145 Q 21.3079 16.7473 21.3681 16.7664 L 21.8712 16.9195 Q 23.4435 17.3543 23.9685 17.8328 Q 24.4935 18.3113 24.4935 19.1398 Q 24.4935 20.6629 23.2849 21.6199 Q 22.0763 22.577 20.1185 22.577 Q 19.3583 22.577 18.5216 22.4293 Q 17.6849 22.2844 16.6759 21.9781 L 16.9821 20.3539 Q 17.8462 20.7996 18.6829 21.0293 Q 19.5224 21.259 20.2907 21.259 Q 21.4446 21.259 22.1665 20.7641 Q 22.8884 20.2691 22.8884 19.509 Q 22.8884 18.6887 20.9907 18.1828 L 20.8294 18.1418 L 20.2907 18.0051 Q 19.0931 17.6879 18.538 17.1711 Q 17.9829 16.6543 17.9829 15.8504 Q 17.9829 14.3219 19.1313 13.425 Q 20.2825 12.5281 22.2567 12.5281 Q 23.0333 12.5281 23.7716 12.6566 Q 24.5126 12.7824 25.229 13.0395 Z" fill="#111111"/></g>
    <text id="stage2-layer2-label" x="1170" y="804" font-family="var(--font-sans)" font-size="29" font-weight="700" fill="#777777" text-anchor="start"><tspan x="1170" dy="0">Layer 2</tspan></text>
    <g id="stage2-layer2-mtheta" class="math formula" data-latex="M_{\theta}" data-math-hash="ac2f4eb700" transform="translate(1194.57 838) scale(1.7264768)"><title>M_{\theta}</title><path d="M 5.11312 0 L 10.44 0 L 13.5 17.685 L 23.6587 0 L 29.1262 0 L 24.0131 26.2462 L 20.565 26.2462 L 25.0312 3.23438 L 14.7319 21.2006 L 11.2669 21.2006 L 7.92562 3.16687 L 3.465 26.2462 L 0 26.2462 L 5.11312 0 Z M 41.563 23.4152 L 33.7352 23.4152 Q 33.2076 27.0967 33.747 28.656 Q 34.4243 30.5775 36.2592 30.5775 Q 38.1019 30.5775 39.5076 28.6442 Q 40.7361 26.9471 41.563 23.4152 Z M 41.941 21.3244 Q 42.2757 17.8279 41.8425 16.5994 Q 41.1692 14.6542 39.358 14.6542 Q 37.4759 14.6542 36.0977 16.5757 Q 35.0149 18.1232 34.1644 21.3244 L 41.941 21.3244 Z M 39.7163 12.8076 Q 42.6694 12.8076 43.8507 15.4181 Q 45.0319 18.0129 44.1342 22.6159 Q 43.2482 27.207 41.0432 29.8136 Q 38.854 32.436 35.9009 32.436 Q 32.9359 32.436 31.7665 29.8136 Q 30.597 27.207 31.483 22.6159 Q 32.3807 18.0129 34.5582 15.4181 Q 36.7514 12.8076 39.7163 12.8076 Z" fill="#111111"/></g>
    <text id="stage2-plus-l2" x="1330" y="884" font-family="var(--font-sans)" font-size="34" font-weight="700" fill="#111111" text-anchor="middle"><tspan x="1330" dy="0">+</tspan></text>
    <g id="stage2-l2-as-text" class="math formula" data-latex="A_s" data-math-hash="953162bf1f" transform="translate(1353.92 831) scale(1.7717183)"><title>A_s</title><path d="M 10.5352 0 L 13.332 0 L 16.7148 18.2266 L 14.1367 18.2266 L 13.3789 13.5508 L 5.17578 13.5508 L 2.60156 18.2266 L 0 18.2266 L 10.5352 0 Z M 11.4258 2.42969 L 6.3125 11.5 L 13.0039 11.5 L 11.4258 2.42969 Z M 27.1841 13.0395 L 26.886 14.527 Q 26.2626 14.1852 25.5681 14.0156 Q 24.8763 13.8434 24.1435 13.8434 Q 22.9021 13.8434 22.1884 14.2672 Q 21.4774 14.6883 21.4774 15.4156 Q 21.4774 16.2605 23.1345 16.7145 Q 23.263 16.7473 23.3231 16.7664 L 23.8263 16.9195 Q 25.3985 17.3543 25.9235 17.8328 Q 26.4485 18.3113 26.4485 19.1398 Q 26.4485 20.6629 25.2399 21.6199 Q 24.0313 22.577 22.0735 22.577 Q 21.3134 22.577 20.4767 22.4293 Q 19.6399 22.2844 18.631 21.9781 L 18.9372 20.3539 Q 19.8013 20.7996 20.638 21.0293 Q 21.4774 21.259 22.2458 21.259 Q 23.3997 21.259 24.1216 20.7641 Q 24.8435 20.2691 24.8435 19.509 Q 24.8435 18.6887 22.9458 18.1828 L 22.7845 18.1418 L 22.2458 18.0051 Q 21.0481 17.6879 20.4931 17.1711 Q 19.938 16.6543 19.938 15.8504 Q 19.938 14.3219 21.0864 13.425 Q 22.2376 12.5281 24.2118 12.5281 Q 24.9884 12.5281 25.7267 12.6566 Q 26.4677 12.7824 27.1841 13.0395 Z" fill="#111111"/></g>
    <g id="stage2-l2-bs-text" class="math formula" data-latex="B_s" data-math-hash="9a0cc9f062" transform="translate(1357.65 894) scale(1.7717183)"><title>B_s</title><path d="M 3.55078 0 L 9.85156 0 Q 12.4141 0 13.6836 0.953125 Q 14.9531 1.90625 14.9531 3.82031 Q 14.9531 5.57812 13.8594 6.85547 Q 12.7695 8.13281 11 8.39844 Q 12.5117 8.74219 13.2695 9.70703 Q 14.0273 10.6719 14.0273 12.2812 Q 14.0273 15.0273 11.9922 16.6289 Q 9.96094 18.2266 6.43359 18.2266 L 0 18.2266 L 3.55078 0 Z M 4.14844 9.52344 L 2.85547 16.1992 L 6.82422 16.1992 Q 9.05859 16.1992 10.2656 15.1758 Q 11.4727 14.1484 11.4727 12.2812 Q 11.4727 10.8398 10.6719 10.1836 Q 9.875 9.52344 8.10547 9.52344 L 4.14844 9.52344 Z M 5.60156 2.02734 L 4.52734 7.51953 L 8.20312 7.51953 Q 10.168 7.51953 11.2734 6.66797 Q 12.3789 5.8125 12.3789 4.29688 Q 12.3789 3.11328 11.6328 2.57031 Q 10.8867 2.02734 9.25391 2.02734 L 5.60156 2.02734 Z M 25.229 13.0395 L 24.931 14.527 Q 24.3075 14.1852 23.613 14.0156 Q 22.9212 13.8434 22.1884 13.8434 Q 20.947 13.8434 20.2333 14.2672 Q 19.5224 14.6883 19.5224 15.4156 Q 19.5224 16.2605 21.1794 16.7145 Q 21.3079 16.7473 21.3681 16.7664 L 21.8712 16.9195 Q 23.4435 17.3543 23.9685 17.8328 Q 24.4935 18.3113 24.4935 19.1398 Q 24.4935 20.6629 23.2849 21.6199 Q 22.0763 22.577 20.1185 22.577 Q 19.3583 22.577 18.5216 22.4293 Q 17.6849 22.2844 16.6759 21.9781 L 16.9821 20.3539 Q 17.8462 20.7996 18.6829 21.0293 Q 19.5224 21.259 20.2907 21.259 Q 21.4446 21.259 22.1665 20.7641 Q 22.8884 20.2691 22.8884 19.509 Q 22.8884 18.6887 20.9907 18.1828 L 20.8294 18.1418 L 20.2907 18.0051 Q 19.0931 17.6879 18.538 17.1711 Q 17.9829 16.6543 17.9829 15.8504 Q 17.9829 14.3219 19.1313 13.425 Q 20.2825 12.5281 22.2567 12.5281 Q 23.0333 12.5281 23.7716 12.6566 Q 24.5126 12.7824 25.229 13.0395 Z" fill="#111111"/></g>
    <text id="stage2-ellipsis" x="1490" y="889" font-family="var(--font-sans)" font-size="45" font-weight="700" fill="#111111" text-anchor="middle"><tspan x="1490" dy="0">......</tspan></text>
    <text id="stage2-layern-label" x="1604" y="804" font-family="var(--font-sans)" font-size="29" font-weight="700" fill="#111111" text-anchor="start"><tspan x="1604" dy="0">Layer N</tspan></text>
    <g id="stage2-layern-mtheta" class="math formula" data-latex="M_{\theta}" data-math-hash="ac2f4eb700" transform="translate(1626.57 838) scale(1.7264768)"><title>M_{\theta}</title><path d="M 5.11312 0 L 10.44 0 L 13.5 17.685 L 23.6587 0 L 29.1262 0 L 24.0131 26.2462 L 20.565 26.2462 L 25.0312 3.23438 L 14.7319 21.2006 L 11.2669 21.2006 L 7.92562 3.16687 L 3.465 26.2462 L 0 26.2462 L 5.11312 0 Z M 41.563 23.4152 L 33.7352 23.4152 Q 33.2076 27.0967 33.747 28.656 Q 34.4243 30.5775 36.2592 30.5775 Q 38.1019 30.5775 39.5076 28.6442 Q 40.7361 26.9471 41.563 23.4152 Z M 41.941 21.3244 Q 42.2757 17.8279 41.8425 16.5994 Q 41.1692 14.6542 39.358 14.6542 Q 37.4759 14.6542 36.0977 16.5757 Q 35.0149 18.1232 34.1644 21.3244 L 41.941 21.3244 Z M 39.7163 12.8076 Q 42.6694 12.8076 43.8507 15.4181 Q 45.0319 18.0129 44.1342 22.6159 Q 43.2482 27.207 41.0432 29.8136 Q 38.854 32.436 35.9009 32.436 Q 32.9359 32.436 31.7665 29.8136 Q 30.597 27.207 31.483 22.6159 Q 32.3807 18.0129 34.5582 15.4181 Q 36.7514 12.8076 39.7163 12.8076 Z" fill="#111111"/></g>
    <text id="stage2-plus-ln" x="1770" y="884" font-family="var(--font-sans)" font-size="31" font-weight="700" fill="#111111" text-anchor="middle"><tspan x="1770" dy="0">+</tspan></text>
    <g id="stage2-ln-as-text" class="math formula" data-latex="A_s" data-math-hash="953162bf1f" transform="translate(1797.92 831) scale(1.7717183)"><title>A_s</title><path d="M 10.5352 0 L 13.332 0 L 16.7148 18.2266 L 14.1367 18.2266 L 13.3789 13.5508 L 5.17578 13.5508 L 2.60156 18.2266 L 0 18.2266 L 10.5352 0 Z M 11.4258 2.42969 L 6.3125 11.5 L 13.0039 11.5 L 11.4258 2.42969 Z M 27.1841 13.0395 L 26.886 14.527 Q 26.2626 14.1852 25.5681 14.0156 Q 24.8763 13.8434 24.1435 13.8434 Q 22.9021 13.8434 22.1884 14.2672 Q 21.4774 14.6883 21.4774 15.4156 Q 21.4774 16.2605 23.1345 16.7145 Q 23.263 16.7473 23.3231 16.7664 L 23.8263 16.9195 Q 25.3985 17.3543 25.9235 17.8328 Q 26.4485 18.3113 26.4485 19.1398 Q 26.4485 20.6629 25.2399 21.6199 Q 24.0313 22.577 22.0735 22.577 Q 21.3134 22.577 20.4767 22.4293 Q 19.6399 22.2844 18.631 21.9781 L 18.9372 20.3539 Q 19.8013 20.7996 20.638 21.0293 Q 21.4774 21.259 22.2458 21.259 Q 23.3997 21.259 24.1216 20.7641 Q 24.8435 20.2691 24.8435 19.509 Q 24.8435 18.6887 22.9458 18.1828 L 22.7845 18.1418 L 22.2458 18.0051 Q 21.0481 17.6879 20.4931 17.1711 Q 19.938 16.6543 19.938 15.8504 Q 19.938 14.3219 21.0864 13.425 Q 22.2376 12.5281 24.2118 12.5281 Q 24.9884 12.5281 25.7267 12.6566 Q 26.4677 12.7824 27.1841 13.0395 Z" fill="#111111"/></g>
    <g id="stage2-ln-bs-text" class="math formula" data-latex="B_s" data-math-hash="9a0cc9f062" transform="translate(1801.65 894) scale(1.7717183)"><title>B_s</title><path d="M 3.55078 0 L 9.85156 0 Q 12.4141 0 13.6836 0.953125 Q 14.9531 1.90625 14.9531 3.82031 Q 14.9531 5.57812 13.8594 6.85547 Q 12.7695 8.13281 11 8.39844 Q 12.5117 8.74219 13.2695 9.70703 Q 14.0273 10.6719 14.0273 12.2812 Q 14.0273 15.0273 11.9922 16.6289 Q 9.96094 18.2266 6.43359 18.2266 L 0 18.2266 L 3.55078 0 Z M 4.14844 9.52344 L 2.85547 16.1992 L 6.82422 16.1992 Q 9.05859 16.1992 10.2656 15.1758 Q 11.4727 14.1484 11.4727 12.2812 Q 11.4727 10.8398 10.6719 10.1836 Q 9.875 9.52344 8.10547 9.52344 L 4.14844 9.52344 Z M 5.60156 2.02734 L 4.52734 7.51953 L 8.20312 7.51953 Q 10.168 7.51953 11.2734 6.66797 Q 12.3789 5.8125 12.3789 4.29688 Q 12.3789 3.11328 11.6328 2.57031 Q 10.8867 2.02734 9.25391 2.02734 L 5.60156 2.02734 Z M 25.229 13.0395 L 24.931 14.527 Q 24.3075 14.1852 23.613 14.0156 Q 22.9212 13.8434 22.1884 13.8434 Q 20.947 13.8434 20.2333 14.2672 Q 19.5224 14.6883 19.5224 15.4156 Q 19.5224 16.2605 21.1794 16.7145 Q 21.3079 16.7473 21.3681 16.7664 L 21.8712 16.9195 Q 23.4435 17.3543 23.9685 17.8328 Q 24.4935 18.3113 24.4935 19.1398 Q 24.4935 20.6629 23.2849 21.6199 Q 22.0763 22.577 20.1185 22.577 Q 19.3583 22.577 18.5216 22.4293 Q 17.6849 22.2844 16.6759 21.9781 L 16.9821 20.3539 Q 17.8462 20.7996 18.6829 21.0293 Q 19.5224 21.259 20.2907 21.259 Q 21.4446 21.259 22.1665 20.7641 Q 22.8884 20.2691 22.8884 19.509 Q 22.8884 18.6887 20.9907 18.1828 L 20.8294 18.1418 L 20.2907 18.0051 Q 19.0931 17.6879 18.538 17.1711 Q 17.9829 16.6543 17.9829 15.8504 Q 17.9829 14.3219 19.1313 13.425 Q 20.2825 12.5281 22.2567 12.5281 Q 23.0333 12.5281 23.7716 12.6566 Q 24.5126 12.7824 25.229 13.0395 Z" fill="#111111"/></g>
    <text id="inference-semantic" x="2192" y="143" font-family="var(--font-sans)" font-size="31" font-weight="700" fill="#8a421d" text-anchor="start"><tspan x="2192" dy="0">Semantic</tspan></text>
    <text id="inference-geometry" x="2342" y="143" font-family="var(--font-sans)" font-size="31" font-weight="700" fill="#8a421d" text-anchor="start"><tspan x="2342" dy="0">Geometry</tspan></text>
    <text id="injection-title" x="2193" y="366" font-family="var(--font-sans)" font-size="32" font-weight="700" fill="#8a421d" text-anchor="start"><tspan x="2193" dy="0">Injection Control</tspan></text>
    <g id="inject-small-as-text" class="math formula" data-latex="A_s" data-math-hash="953162bf1f" transform="translate(2211.94 443) scale(1.6609859)"><title>A_s</title><path d="M 8.42813 0 L 10.6656 0 L 13.3719 14.5813 L 11.3094 14.5813 L 10.7031 10.8406 L 4.14062 10.8406 L 2.08125 14.5813 L 0 14.5813 L 8.42813 0 Z M 9.14063 1.94375 L 5.05 9.2 L 10.4031 9.2 L 9.14063 1.94375 Z M 21.7473 10.4316 L 21.5088 11.6216 Q 21.0101 11.3481 20.4545 11.2125 Q 19.901 11.0747 19.3148 11.0747 Q 18.3216 11.0747 17.7507 11.4138 Q 17.182 11.7506 17.182 12.3325 Q 17.182 13.0084 18.5076 13.3716 Q 18.6104 13.3978 18.6585 13.4131 L 19.061 13.5356 Q 20.3188 13.8834 20.7388 14.2663 Q 21.1588 14.6491 21.1588 15.3119 Q 21.1588 16.5303 20.192 17.2959 Q 19.2251 18.0616 17.6588 18.0616 Q 17.0507 18.0616 16.3813 17.9434 Q 15.712 17.8275 14.9048 17.5825 L 15.1498 16.2831 Q 15.841 16.6397 16.5104 16.8234 Q 17.182 17.0072 17.7966 17.0072 Q 18.7198 17.0072 19.2973 16.6113 Q 19.8748 16.2153 19.8748 15.6072 Q 19.8748 14.9509 18.3566 14.5463 L 18.2276 14.5134 L 17.7966 14.4041 Q 16.8385 14.1503 16.3945 13.7369 Q 15.9504 13.3234 15.9504 12.6803 Q 15.9504 11.4575 16.8691 10.74 Q 17.7901 10.0225 19.3695 10.0225 Q 19.9907 10.0225 20.5813 10.1253 Q 21.1741 10.2259 21.7473 10.4316 Z" fill="#111111"/></g>
    <g id="inject-small-bs-text" class="math formula" data-latex="B_s" data-math-hash="9a0cc9f062" transform="translate(2213.24 488) scale(1.6609859)"><title>B_s</title><path d="M 2.84063 0 L 7.88125 0 Q 9.93125 0 10.9469 0.7625 Q 11.9625 1.525 11.9625 3.05625 Q 11.9625 4.4625 11.0875 5.48438 Q 10.2156 6.50625 8.8 6.71875 Q 10.0094 6.99375 10.6156 7.76563 Q 11.2219 8.5375 11.2219 9.825 Q 11.2219 12.0219 9.59375 13.3031 Q 7.96875 14.5813 5.14688 14.5813 L 0 14.5813 L 2.84063 0 Z M 3.31875 7.61875 L 2.28438 12.9594 L 5.45938 12.9594 Q 7.24688 12.9594 8.2125 12.1406 Q 9.17813 11.3188 9.17813 9.825 Q 9.17813 8.67188 8.5375 8.14688 Q 7.9 7.61875 6.48438 7.61875 L 3.31875 7.61875 Z M 4.48125 1.62188 L 3.62187 6.01563 L 6.5625 6.01563 Q 8.13438 6.01563 9.01875 5.33438 Q 9.90313 4.65 9.90313 3.4375 Q 9.90313 2.49063 9.30625 2.05625 Q 8.70938 1.62188 7.40313 1.62188 L 4.48125 1.62188 Z M 20.1832 10.4316 L 19.9448 11.6216 Q 19.446 11.3481 18.8904 11.2125 Q 18.337 11.0747 17.7507 11.0747 Q 16.7576 11.0747 16.1866 11.4138 Q 15.6179 11.7506 15.6179 12.3325 Q 15.6179 13.0084 16.9435 13.3716 Q 17.0463 13.3978 17.0945 13.4131 L 17.497 13.5356 Q 18.7548 13.8834 19.1748 14.2663 Q 19.5948 14.6491 19.5948 15.3119 Q 19.5948 16.5303 18.6279 17.2959 Q 17.661 18.0616 16.0948 18.0616 Q 15.4866 18.0616 14.8173 17.9434 Q 14.1479 17.8275 13.3407 17.5825 L 13.5857 16.2831 Q 14.277 16.6397 14.9463 16.8234 Q 15.6179 17.0072 16.2326 17.0072 Q 17.1557 17.0072 17.7332 16.6113 Q 18.3107 16.2153 18.3107 15.6072 Q 18.3107 14.9509 16.7926 14.5463 L 16.6635 14.5134 L 16.2326 14.4041 Q 15.2745 14.1503 14.8304 13.7369 Q 14.3863 13.3234 14.3863 12.6803 Q 14.3863 11.4575 15.3051 10.74 Q 16.226 10.0225 17.8054 10.0225 Q 18.4266 10.0225 19.0173 10.1253 Q 19.6101 10.2259 20.1832 10.4316 Z" fill="#111111"/></g>
    <g id="inject-mid-as-text" class="math formula" data-latex="A_s" data-math-hash="953162bf1f" transform="translate(2301.92 401) scale(1.8455398)"><title>A_s</title><path d="M 10.1137 0 L 12.7988 0 L 16.0463 17.4975 L 13.5713 17.4975 L 12.8438 13.0087 L 4.96875 13.0087 L 2.4975 17.4975 L 0 17.4975 L 10.1137 0 Z M 10.9688 2.3325 L 6.06 11.04 L 12.4838 11.04 L 10.9688 2.3325 Z M 26.0967 12.5179 L 25.8106 13.9459 Q 25.2121 13.6178 24.5453 13.455 Q 23.8812 13.2896 23.1777 13.2896 Q 21.986 13.2896 21.3008 13.6965 Q 20.6183 14.1007 20.6183 14.799 Q 20.6183 15.6101 22.2091 16.0459 Q 22.3325 16.0774 22.3902 16.0957 L 22.8732 16.2428 Q 24.3826 16.6601 24.8866 17.1195 Q 25.3906 17.5789 25.3906 18.3742 Q 25.3906 19.8364 24.2303 20.7551 Q 23.0701 21.6739 21.1906 21.6739 Q 20.4608 21.6739 19.6576 21.5321 Q 18.8543 21.393 17.8857 21.099 L 18.1797 19.5397 Q 19.0092 19.9676 19.8125 20.1881 Q 20.6183 20.4086 21.356 20.4086 Q 22.4637 20.4086 23.1567 19.9335 Q 23.8497 19.4584 23.8497 18.7286 Q 23.8497 17.9411 22.028 17.4555 L 21.8731 17.4161 L 21.356 17.2849 Q 20.2062 16.9804 19.6733 16.4842 Q 19.1405 15.9881 19.1405 15.2164 Q 19.1405 13.749 20.243 12.888 Q 21.3481 12.027 23.2433 12.027 Q 23.9888 12.027 24.6976 12.1504 Q 25.409 12.2711 26.0967 12.5179 Z" fill="#111111"/></g>
    <g id="inject-mid-bs-text" class="math formula" data-latex="B_s" data-math-hash="9a0cc9f062" transform="translate(2303.65 463) scale(1.8455398)"><title>B_s</title><path d="M 3.40875 0 L 9.4575 0 Q 11.9175 0 13.1363 0.915 Q 14.355 1.83 14.355 3.6675 Q 14.355 5.355 13.305 6.58125 Q 12.2587 7.8075 10.56 8.0625 Q 12.0113 8.3925 12.7387 9.31875 Q 13.4663 10.245 13.4663 11.79 Q 13.4663 14.4262 11.5125 15.9637 Q 9.5625 17.4975 6.17625 17.4975 L 0 17.4975 L 3.40875 0 Z M 3.9825 9.1425 L 2.74125 15.5512 L 6.55125 15.5512 Q 8.69625 15.5512 9.855 14.5687 Q 11.0137 13.5825 11.0137 11.79 Q 11.0137 10.4062 10.245 9.77625 Q 9.48 9.1425 7.78125 9.1425 L 3.9825 9.1425 Z M 5.3775 1.94625 L 4.34625 7.21875 L 7.875 7.21875 Q 9.76125 7.21875 10.8225 6.40125 Q 11.8837 5.58 11.8837 4.125 Q 11.8837 2.98875 11.1675 2.4675 Q 10.4512 1.94625 8.88375 1.94625 L 5.3775 1.94625 Z M 24.2198 12.5179 L 23.9337 13.9459 Q 23.3352 13.6178 22.6685 13.455 Q 22.0043 13.2896 21.3008 13.2896 Q 20.1091 13.2896 19.424 13.6965 Q 18.7415 14.1007 18.7415 14.799 Q 18.7415 15.6101 20.3322 16.0459 Q 20.4556 16.0774 20.5133 16.0957 L 20.9963 16.2428 Q 22.5057 16.6601 23.0097 17.1195 Q 23.5137 17.5789 23.5137 18.3742 Q 23.5137 19.8364 22.3535 20.7551 Q 21.1932 21.6739 19.3137 21.6739 Q 18.584 21.6739 17.7807 21.5321 Q 16.9775 21.393 16.0088 21.099 L 16.3028 19.5397 Q 17.1323 19.9676 17.9356 20.1881 Q 18.7415 20.4086 19.4791 20.4086 Q 20.5868 20.4086 21.2798 19.9335 Q 21.9728 19.4584 21.9728 18.7286 Q 21.9728 17.9411 20.1511 17.4555 L 19.9962 17.4161 L 19.4791 17.2849 Q 18.3293 16.9804 17.7965 16.4842 Q 17.2636 15.9881 17.2636 15.2164 Q 17.2636 13.749 18.3661 12.888 Q 19.4712 12.027 21.3665 12.027 Q 22.112 12.027 22.8207 12.1504 Q 23.5321 12.2711 24.2198 12.5179 Z" fill="#111111"/></g>
    <g id="inject-big-as-text" class="math formula" data-latex="A_s" data-math-hash="953162bf1f" transform="translate(2415.51 395) scale(1.8739328)"><title>A_s</title><path d="M 10.9566 0 L 13.8653 0 L 17.3834 18.9556 L 14.7022 18.9556 L 13.9141 14.0928 L 5.38281 14.0928 L 2.70562 18.9556 L 0 18.9556 L 10.9566 0 Z M 11.8828 2.52688 L 6.565 11.96 L 13.5241 11.96 L 11.8828 2.52688 Z M 28.2714 13.561 L 27.9615 15.108 Q 27.3131 14.7526 26.5908 14.5762 Q 25.8713 14.3971 25.1092 14.3971 Q 23.8181 14.3971 23.0759 14.8379 Q 22.3365 15.2758 22.3365 16.0323 Q 22.3365 16.911 24.0599 17.383 Q 24.1935 17.4172 24.2561 17.4371 L 24.7793 17.5963 Q 26.4145 18.0485 26.9605 18.5461 Q 27.5065 19.0438 27.5065 19.9054 Q 27.5065 21.4894 26.2495 22.4847 Q 24.9926 23.48 22.9565 23.48 Q 22.1659 23.48 21.2957 23.3265 Q 20.4255 23.1758 19.3762 22.8573 L 19.6947 21.1681 Q 20.5933 21.6316 21.4635 21.8705 Q 22.3365 22.1093 23.1356 22.1093 Q 24.3357 22.1093 25.0864 21.5946 Q 25.8372 21.0799 25.8372 20.2893 Q 25.8372 19.4362 23.8636 18.9101 L 23.6959 18.8675 L 23.1356 18.7253 Q 21.8901 18.3954 21.3128 17.8579 Q 20.7355 17.3205 20.7355 16.4844 Q 20.7355 14.8948 21.9299 13.962 Q 23.1271 13.0293 25.1803 13.0293 Q 25.9879 13.0293 26.7557 13.1629 Q 27.5264 13.2937 28.2714 13.561 Z" fill="#111111"/></g>
    <g id="inject-big-bs-text" class="math formula" data-latex="B_s" data-math-hash="9a0cc9f062" transform="translate(2417.42 468) scale(1.8739328)"><title>B_s</title><path d="M 3.69281 0 L 10.2456 0 Q 12.9106 0 14.2309 0.99125 Q 15.5512 1.9825 15.5512 3.97312 Q 15.5512 5.80125 14.4138 7.12969 Q 13.2803 8.45813 11.44 8.73438 Q 13.0122 9.09187 13.8003 10.0953 Q 14.5884 11.0987 14.5884 12.7725 Q 14.5884 15.6284 12.4719 17.2941 Q 10.3594 18.9556 6.69094 18.9556 L 0 18.9556 L 3.69281 0 Z M 4.31438 9.90437 L 2.96969 16.8472 L 7.09719 16.8472 Q 9.42094 16.8472 10.6762 15.7828 Q 11.9316 14.7144 11.9316 12.7725 Q 11.9316 11.2734 11.0988 10.5909 Q 10.27 9.90437 8.42969 9.90437 L 4.31438 9.90437 Z M 5.82563 2.10844 L 4.70844 7.82031 L 8.53125 7.82031 Q 10.5747 7.82031 11.7244 6.93469 Q 12.8741 6.045 12.8741 4.46875 Q 12.8741 3.23781 12.0981 2.67312 Q 11.3222 2.10844 9.62406 2.10844 L 5.82563 2.10844 Z M 26.2382 13.561 L 25.9282 15.108 Q 25.2798 14.7526 24.5575 14.5762 Q 23.838 14.3971 23.0759 14.3971 Q 21.7849 14.3971 21.0426 14.8379 Q 20.3033 15.2758 20.3033 16.0323 Q 20.3033 16.911 22.0266 17.383 Q 22.1602 17.4172 22.2228 17.4371 L 22.746 17.5963 Q 24.3812 18.0485 24.9272 18.5461 Q 25.4732 19.0438 25.4732 19.9054 Q 25.4732 21.4894 24.2163 22.4847 Q 22.9593 23.48 20.9232 23.48 Q 20.1326 23.48 19.2624 23.3265 Q 18.3923 23.1758 17.3429 22.8573 L 17.6614 21.1681 Q 18.56 21.6316 19.4302 21.8705 Q 20.3033 22.1093 21.1024 22.1093 Q 22.3024 22.1093 23.0532 21.5946 Q 23.8039 21.0799 23.8039 20.2893 Q 23.8039 19.4362 21.8304 18.9101 L 21.6626 18.8675 L 21.1024 18.7253 Q 19.8568 18.3954 19.2795 17.8579 Q 18.7022 17.3205 18.7022 16.4844 Q 18.7022 14.8948 19.8966 13.962 Q 21.0938 13.0293 23.147 13.0293 Q 23.9546 13.0293 24.7224 13.1629 Q 25.4931 13.2937 26.2382 13.561 Z" fill="#111111"/></g>
    <text id="slider-0" x="2190" y="561" font-family="var(--font-sans)" font-size="21" font-weight="400" fill="#111111" text-anchor="middle"><tspan x="2190" dy="0">0</tspan></text>
    <text id="slider-03" x="2260" y="561" font-family="var(--font-sans)" font-size="21" font-weight="400" fill="#111111" text-anchor="middle"><tspan x="2260" dy="0">0.3</tspan></text>
    <text id="slider-06" x="2334" y="561" font-family="var(--font-sans)" font-size="21" font-weight="400" fill="#111111" text-anchor="middle"><tspan x="2334" dy="0">0.6</tspan></text>
    <text id="slider-09" x="2400" y="561" font-family="var(--font-sans)" font-size="21" font-weight="400" fill="#111111" text-anchor="middle"><tspan x="2400" dy="0">0.9</tspan></text>
    <text id="slider-12" x="2458" y="561" font-family="var(--font-sans)" font-size="21" font-weight="400" fill="#111111" text-anchor="middle"><tspan x="2458" dy="0">1.2</tspan></text>
    <g id="slider-alpha" class="math formula" data-latex="\alpha" data-math-hash="f7c665b459" transform="translate(2520.5 510.336) scale(2.3334766)"><title>\alpha</title><path d="M 9.10455 7.61816 L 9.11627 4.79785 Q 9.12799 1.91504 6.95611 1.90332 Q 5.33111 1.8916 4.31939 3.24707 Q 3.04986 4.91894 2.62017 7.15332 Q 2.09674 9.84082 2.75689 11.1221 Q 3.44049 12.4268 4.91705 12.4268 Q 6.55377 12.4268 7.93267 9.82519 L 9.10455 7.61816 Z M 7.33502 0.000974659 Q 11.1436 -0.0615253 11.0928 3.88379 Q 11.0928 3.88379 12.9991 0.305662 L 14.9991 0.305662 L 11.0577 7.71582 L 11.0186 10.3877 Q 11.0186 10.9853 11.3506 11.4853 Q 11.7295 12.0713 12.1202 12.0713 L 13.2061 12.0713 L 12.8389 13.9775 L 11.4835 13.9775 Q 10.335 13.9775 9.50689 12.9502 Q 9.11627 12.4385 9.10455 11.3643 Q 8.31158 12.6728 6.94439 13.7822 Q 6.29595 14.2939 4.54986 14.2822 Q 1.69439 14.2588 0.655329 12.4268 Q -0.407171 10.5244 0.252985 7.15332 Q 0.960016 3.52832 2.81549 1.87988 Q 4.90533 0.0361309 7.33502 0.000974659 Z" fill="#111111"/></g>
    <text id="composition-title-skill" x="2195" y="634" font-family="var(--font-sans)" font-size="32" font-weight="700" fill="#8a421d" text-anchor="start"><tspan x="2195" dy="0">Skill</tspan></text>
    <text id="composition-title-comp" x="2278" y="634" font-family="var(--font-sans)" font-size="32" font-weight="700" fill="#8a421d" text-anchor="start"><tspan x="2278" dy="0">Composition</tspan></text>
    <g id="comp-left-as-text" class="math formula" data-latex="A_s" data-math-hash="953162bf1f" transform="translate(2217.94 677) scale(1.6609859)"><title>A_s</title><path d="M 8.42813 0 L 10.6656 0 L 13.3719 14.5813 L 11.3094 14.5813 L 10.7031 10.8406 L 4.14062 10.8406 L 2.08125 14.5813 L 0 14.5813 L 8.42813 0 Z M 9.14063 1.94375 L 5.05 9.2 L 10.4031 9.2 L 9.14063 1.94375 Z M 21.7473 10.4316 L 21.5088 11.6216 Q 21.0101 11.3481 20.4545 11.2125 Q 19.901 11.0747 19.3148 11.0747 Q 18.3216 11.0747 17.7507 11.4138 Q 17.182 11.7506 17.182 12.3325 Q 17.182 13.0084 18.5076 13.3716 Q 18.6104 13.3978 18.6585 13.4131 L 19.061 13.5356 Q 20.3188 13.8834 20.7388 14.2663 Q 21.1588 14.6491 21.1588 15.3119 Q 21.1588 16.5303 20.192 17.2959 Q 19.2251 18.0616 17.6588 18.0616 Q 17.0507 18.0616 16.3813 17.9434 Q 15.712 17.8275 14.9048 17.5825 L 15.1498 16.2831 Q 15.841 16.6397 16.5104 16.8234 Q 17.182 17.0072 17.7966 17.0072 Q 18.7198 17.0072 19.2973 16.6113 Q 19.8748 16.2153 19.8748 15.6072 Q 19.8748 14.9509 18.3566 14.5463 L 18.2276 14.5134 L 17.7966 14.4041 Q 16.8385 14.1503 16.3945 13.7369 Q 15.9504 13.3234 15.9504 12.6803 Q 15.9504 11.4575 16.8691 10.74 Q 17.7901 10.0225 19.3695 10.0225 Q 19.9907 10.0225 20.5813 10.1253 Q 21.1741 10.2259 21.7473 10.4316 Z" fill="#111111"/></g>
    <g id="comp-left-bs-text" class="math formula" data-latex="B_s" data-math-hash="9a0cc9f062" transform="translate(2219.24 722) scale(1.6609859)"><title>B_s</title><path d="M 2.84063 0 L 7.88125 0 Q 9.93125 0 10.9469 0.7625 Q 11.9625 1.525 11.9625 3.05625 Q 11.9625 4.4625 11.0875 5.48438 Q 10.2156 6.50625 8.8 6.71875 Q 10.0094 6.99375 10.6156 7.76563 Q 11.2219 8.5375 11.2219 9.825 Q 11.2219 12.0219 9.59375 13.3031 Q 7.96875 14.5813 5.14688 14.5813 L 0 14.5813 L 2.84063 0 Z M 3.31875 7.61875 L 2.28438 12.9594 L 5.45938 12.9594 Q 7.24688 12.9594 8.2125 12.1406 Q 9.17813 11.3188 9.17813 9.825 Q 9.17813 8.67188 8.5375 8.14688 Q 7.9 7.61875 6.48438 7.61875 L 3.31875 7.61875 Z M 4.48125 1.62188 L 3.62187 6.01563 L 6.5625 6.01563 Q 8.13438 6.01563 9.01875 5.33438 Q 9.90313 4.65 9.90313 3.4375 Q 9.90313 2.49063 9.30625 2.05625 Q 8.70938 1.62188 7.40313 1.62188 L 4.48125 1.62188 Z M 20.1832 10.4316 L 19.9448 11.6216 Q 19.446 11.3481 18.8904 11.2125 Q 18.337 11.0747 17.7507 11.0747 Q 16.7576 11.0747 16.1866 11.4138 Q 15.6179 11.7506 15.6179 12.3325 Q 15.6179 13.0084 16.9435 13.3716 Q 17.0463 13.3978 17.0945 13.4131 L 17.497 13.5356 Q 18.7548 13.8834 19.1748 14.2663 Q 19.5948 14.6491 19.5948 15.3119 Q 19.5948 16.5303 18.6279 17.2959 Q 17.661 18.0616 16.0948 18.0616 Q 15.4866 18.0616 14.8173 17.9434 Q 14.1479 17.8275 13.3407 17.5825 L 13.5857 16.2831 Q 14.277 16.6397 14.9463 16.8234 Q 15.6179 17.0072 16.2326 17.0072 Q 17.1557 17.0072 17.7332 16.6113 Q 18.3107 16.2153 18.3107 15.6072 Q 18.3107 14.9509 16.7926 14.5463 L 16.6635 14.5134 L 16.2326 14.4041 Q 15.2745 14.1503 14.8304 13.7369 Q 14.3863 13.3234 14.3863 12.6803 Q 14.3863 11.4575 15.3051 10.74 Q 16.226 10.0225 17.8054 10.0225 Q 18.4266 10.0225 19.0173 10.1253 Q 19.6101 10.2259 20.1832 10.4316 Z" fill="#111111"/></g>
    <g id="comp-mid-as-text" class="math formula" data-latex="A_s" data-math-hash="953162bf1f" transform="translate(2332.93 684.5) scale(1.9378168)"><title>A_s</title><path d="M 8.42813 0 L 10.6656 0 L 13.3719 14.5813 L 11.3094 14.5813 L 10.7031 10.8406 L 4.14062 10.8406 L 2.08125 14.5813 L 0 14.5813 L 8.42813 0 Z M 9.14063 1.94375 L 5.05 9.2 L 10.4031 9.2 L 9.14063 1.94375 Z M 21.7473 10.4316 L 21.5088 11.6216 Q 21.0101 11.3481 20.4545 11.2125 Q 19.901 11.0747 19.3148 11.0747 Q 18.3216 11.0747 17.7507 11.4138 Q 17.182 11.7506 17.182 12.3325 Q 17.182 13.0084 18.5076 13.3716 Q 18.6104 13.3978 18.6585 13.4131 L 19.061 13.5356 Q 20.3188 13.8834 20.7388 14.2663 Q 21.1588 14.6491 21.1588 15.3119 Q 21.1588 16.5303 20.192 17.2959 Q 19.2251 18.0616 17.6588 18.0616 Q 17.0507 18.0616 16.3813 17.9434 Q 15.712 17.8275 14.9048 17.5825 L 15.1498 16.2831 Q 15.841 16.6397 16.5104 16.8234 Q 17.182 17.0072 17.7966 17.0072 Q 18.7198 17.0072 19.2973 16.6113 Q 19.8748 16.2153 19.8748 15.6072 Q 19.8748 14.9509 18.3566 14.5463 L 18.2276 14.5134 L 17.7966 14.4041 Q 16.8385 14.1503 16.3945 13.7369 Q 15.9504 13.3234 15.9504 12.6803 Q 15.9504 11.4575 16.8691 10.74 Q 17.7901 10.0225 19.3695 10.0225 Q 19.9907 10.0225 20.5813 10.1253 Q 21.1741 10.2259 21.7473 10.4316 Z" fill="#111111"/></g>
    <g id="comp-mid-bs-text" class="math formula" data-latex="B_s" data-math-hash="9a0cc9f062" transform="translate(2334.44 750.5) scale(1.9378168)"><title>B_s</title><path d="M 2.84063 0 L 7.88125 0 Q 9.93125 0 10.9469 0.7625 Q 11.9625 1.525 11.9625 3.05625 Q 11.9625 4.4625 11.0875 5.48438 Q 10.2156 6.50625 8.8 6.71875 Q 10.0094 6.99375 10.6156 7.76563 Q 11.2219 8.5375 11.2219 9.825 Q 11.2219 12.0219 9.59375 13.3031 Q 7.96875 14.5813 5.14688 14.5813 L 0 14.5813 L 2.84063 0 Z M 3.31875 7.61875 L 2.28438 12.9594 L 5.45938 12.9594 Q 7.24688 12.9594 8.2125 12.1406 Q 9.17813 11.3188 9.17813 9.825 Q 9.17813 8.67188 8.5375 8.14688 Q 7.9 7.61875 6.48438 7.61875 L 3.31875 7.61875 Z M 4.48125 1.62188 L 3.62187 6.01563 L 6.5625 6.01563 Q 8.13438 6.01563 9.01875 5.33438 Q 9.90313 4.65 9.90313 3.4375 Q 9.90313 2.49063 9.30625 2.05625 Q 8.70938 1.62188 7.40313 1.62188 L 4.48125 1.62188 Z M 20.1832 10.4316 L 19.9448 11.6216 Q 19.446 11.3481 18.8904 11.2125 Q 18.337 11.0747 17.7507 11.0747 Q 16.7576 11.0747 16.1866 11.4138 Q 15.6179 11.7506 15.6179 12.3325 Q 15.6179 13.0084 16.9435 13.3716 Q 17.0463 13.3978 17.0945 13.4131 L 17.497 13.5356 Q 18.7548 13.8834 19.1748 14.2663 Q 19.5948 14.6491 19.5948 15.3119 Q 19.5948 16.5303 18.6279 17.2959 Q 17.661 18.0616 16.0948 18.0616 Q 15.4866 18.0616 14.8173 17.9434 Q 14.1479 17.8275 13.3407 17.5825 L 13.5857 16.2831 Q 14.277 16.6397 14.9463 16.8234 Q 15.6179 17.0072 16.2326 17.0072 Q 17.1557 17.0072 17.7332 16.6113 Q 18.3107 16.2153 18.3107 15.6072 Q 18.3107 14.9509 16.7926 14.5463 L 16.6635 14.5134 L 16.2326 14.4041 Q 15.2745 14.1503 14.8304 13.7369 Q 14.3863 13.3234 14.3863 12.6803 Q 14.3863 11.4575 15.3051 10.74 Q 16.226 10.0225 17.8054 10.0225 Q 18.4266 10.0225 19.0173 10.1253 Q 19.6101 10.2259 20.1832 10.4316 Z" fill="#111111"/></g>
    <g id="comp-right-as-text" class="math formula" data-latex="A_s" data-math-hash="953162bf1f" transform="translate(2450.93 684.5) scale(1.9378168)"><title>A_s</title><path d="M 8.42813 0 L 10.6656 0 L 13.3719 14.5813 L 11.3094 14.5813 L 10.7031 10.8406 L 4.14062 10.8406 L 2.08125 14.5813 L 0 14.5813 L 8.42813 0 Z M 9.14063 1.94375 L 5.05 9.2 L 10.4031 9.2 L 9.14063 1.94375 Z M 21.7473 10.4316 L 21.5088 11.6216 Q 21.0101 11.3481 20.4545 11.2125 Q 19.901 11.0747 19.3148 11.0747 Q 18.3216 11.0747 17.7507 11.4138 Q 17.182 11.7506 17.182 12.3325 Q 17.182 13.0084 18.5076 13.3716 Q 18.6104 13.3978 18.6585 13.4131 L 19.061 13.5356 Q 20.3188 13.8834 20.7388 14.2663 Q 21.1588 14.6491 21.1588 15.3119 Q 21.1588 16.5303 20.192 17.2959 Q 19.2251 18.0616 17.6588 18.0616 Q 17.0507 18.0616 16.3813 17.9434 Q 15.712 17.8275 14.9048 17.5825 L 15.1498 16.2831 Q 15.841 16.6397 16.5104 16.8234 Q 17.182 17.0072 17.7966 17.0072 Q 18.7198 17.0072 19.2973 16.6113 Q 19.8748 16.2153 19.8748 15.6072 Q 19.8748 14.9509 18.3566 14.5463 L 18.2276 14.5134 L 17.7966 14.4041 Q 16.8385 14.1503 16.3945 13.7369 Q 15.9504 13.3234 15.9504 12.6803 Q 15.9504 11.4575 16.8691 10.74 Q 17.7901 10.0225 19.3695 10.0225 Q 19.9907 10.0225 20.5813 10.1253 Q 21.1741 10.2259 21.7473 10.4316 Z" fill="#111111"/></g>
    <g id="comp-right-bs-text" class="math formula" data-latex="B_s" data-math-hash="9a0cc9f062" transform="translate(2452.44 750.5) scale(1.9378168)"><title>B_s</title><path d="M 2.84063 0 L 7.88125 0 Q 9.93125 0 10.9469 0.7625 Q 11.9625 1.525 11.9625 3.05625 Q 11.9625 4.4625 11.0875 5.48438 Q 10.2156 6.50625 8.8 6.71875 Q 10.0094 6.99375 10.6156 7.76563 Q 11.2219 8.5375 11.2219 9.825 Q 11.2219 12.0219 9.59375 13.3031 Q 7.96875 14.5813 5.14688 14.5813 L 0 14.5813 L 2.84063 0 Z M 3.31875 7.61875 L 2.28438 12.9594 L 5.45938 12.9594 Q 7.24688 12.9594 8.2125 12.1406 Q 9.17813 11.3188 9.17813 9.825 Q 9.17813 8.67188 8.5375 8.14688 Q 7.9 7.61875 6.48438 7.61875 L 3.31875 7.61875 Z M 4.48125 1.62188 L 3.62187 6.01563 L 6.5625 6.01563 Q 8.13438 6.01563 9.01875 5.33438 Q 9.90313 4.65 9.90313 3.4375 Q 9.90313 2.49063 9.30625 2.05625 Q 8.70938 1.62188 7.40313 1.62188 L 4.48125 1.62188 Z M 20.1832 10.4316 L 19.9448 11.6216 Q 19.446 11.3481 18.8904 11.2125 Q 18.337 11.0747 17.7507 11.0747 Q 16.7576 11.0747 16.1866 11.4138 Q 15.6179 11.7506 15.6179 12.3325 Q 15.6179 13.0084 16.9435 13.3716 Q 17.0463 13.3978 17.0945 13.4131 L 17.497 13.5356 Q 18.7548 13.8834 19.1748 14.2663 Q 19.5948 14.6491 19.5948 15.3119 Q 19.5948 16.5303 18.6279 17.2959 Q 17.661 18.0616 16.0948 18.0616 Q 15.4866 18.0616 14.8173 17.9434 Q 14.1479 17.8275 13.3407 17.5825 L 13.5857 16.2831 Q 14.277 16.6397 14.9463 16.8234 Q 15.6179 17.0072 16.2326 17.0072 Q 17.1557 17.0072 17.7332 16.6113 Q 18.3107 16.2153 18.3107 15.6072 Q 18.3107 14.9509 16.7926 14.5463 L 16.6635 14.5134 L 16.2326 14.4041 Q 15.2745 14.1503 14.8304 13.7369 Q 14.3863 13.3234 14.3863 12.6803 Q 14.3863 11.4575 15.3051 10.74 Q 16.226 10.0225 17.8054 10.0225 Q 18.4266 10.0225 19.0173 10.1253 Q 19.6101 10.2259 20.1832 10.4316 Z" fill="#111111"/></g>
    <text id="composition-ellipsis" x="2540" y="710" font-family="var(--font-sans)" font-size="34" font-weight="700" fill="#111111" text-anchor="middle"><tspan x="2540" dy="0">...</tspan></text>
    <g id="composition-mtheta" class="math formula" data-latex="M_{\theta}" data-math-hash="ac2f4eb700" transform="translate(2321.12 861.5) scale(1.8497965)"><title>M_{\theta}</title><path d="M 3.83484 0 L 7.83 0 L 10.125 13.2638 L 17.7441 0 L 21.8447 0 L 18.0098 19.6847 L 15.4238 19.6847 L 18.7734 2.42578 L 11.0489 15.9005 L 8.45016 15.9005 L 5.94422 2.37516 L 2.59875 19.6847 L 0 19.6847 L 3.83484 0 Z M 31.1722 17.5614 L 25.3014 17.5614 Q 24.9057 20.3226 25.3103 21.492 Q 25.8182 22.9331 27.1944 22.9331 Q 28.5764 22.9331 29.6307 21.4831 Q 30.5521 20.2103 31.1722 17.5614 Z M 31.4557 15.9933 Q 31.7068 13.3709 31.3819 12.4495 Q 30.8769 10.9907 29.5185 10.9907 Q 28.1069 10.9907 27.0733 12.4318 Q 26.2612 13.5924 25.6233 15.9933 L 31.4557 15.9933 Z M 29.7872 9.60567 Q 32.0021 9.60567 32.888 11.5636 Q 33.7739 13.5097 33.1006 16.9619 Q 32.4362 20.4053 30.7824 22.3602 Q 29.1405 24.327 26.9256 24.327 Q 24.7019 24.327 23.8249 22.3602 Q 22.9478 20.4053 23.6122 16.9619 Q 24.2856 13.5097 25.9186 11.5636 Q 27.5635 9.60567 29.7872 9.60567 Z" fill="#111111"/></g>
  </g>
</svg>
